<?xml version="1.0" encoding="UTF-8"?>
<svg xmlns="http://www.w3.org/2000/svg" xmlns:xlink="http://www.w3.org/1999/xlink" viewBox="0 0 1600 240">
  <defs>
    <style>
      .cls-1 {
        fill: url(#_13-24);
      }

      .cls-1, .cls-2, .cls-3, .cls-4, .cls-5, .cls-6, .cls-7, .cls-8, .cls-9, .cls-10, .cls-11, .cls-12, .cls-13, .cls-14, .cls-15, .cls-16, .cls-17, .cls-18, .cls-19, .cls-20, .cls-21, .cls-22, .cls-23, .cls-24, .cls-25, .cls-26, .cls-27, .cls-28, .cls-29, .cls-30, .cls-31, .cls-32, .cls-33, .cls-34, .cls-35, .cls-36, .cls-37, .cls-38, .cls-39, .cls-40, .cls-41, .cls-42, .cls-43, .cls-44, .cls-45, .cls-46, .cls-47, .cls-48, .cls-49, .cls-50, .cls-51, .cls-52, .cls-53, .cls-54, .cls-55, .cls-56, .cls-57, .cls-58, .cls-59, .cls-60, .cls-61, .cls-62, .cls-63, .cls-64, .cls-65, .cls-66, .cls-67, .cls-68, .cls-69, .cls-70, .cls-71, .cls-72, .cls-73, .cls-74, .cls-75, .cls-76, .cls-77, .cls-78, .cls-79, .cls-80, .cls-81, .cls-82, .cls-83, .cls-84, .cls-85, .cls-86, .cls-87, .cls-88, .cls-89, .cls-90, .cls-91, .cls-92, .cls-93, .cls-94, .cls-95, .cls-96, .cls-97, .cls-98, .cls-99, .cls-100, .cls-101, .cls-102, .cls-103, .cls-104, .cls-105, .cls-106, .cls-107, .cls-108, .cls-109, .cls-110, .cls-111, .cls-112, .cls-113, .cls-114, .cls-115, .cls-116, .cls-117, .cls-118, .cls-119, .cls-120, .cls-121, .cls-122, .cls-123, .cls-124, .cls-125, .cls-126, .cls-127, .cls-128 {
        fill-rule: evenodd;
      }

      .cls-1, .cls-2, .cls-6, .cls-10, .cls-15, .cls-16, .cls-17, .cls-25, .cls-27, .cls-33, .cls-46, .cls-47, .cls-50, .cls-52, .cls-54, .cls-64, .cls-68, .cls-129, .cls-70, .cls-73, .cls-81, .cls-84, .cls-90, .cls-91, .cls-94, .cls-95, .cls-101, .cls-103, .cls-104, .cls-108, .cls-109, .cls-120, .cls-123, .cls-125, .cls-126, .cls-127, .cls-128 {
        opacity: .5;
      }

      .cls-1, .cls-2, .cls-10, .cls-15, .cls-16, .cls-17, .cls-25, .cls-31, .cls-33, .cls-46, .cls-47, .cls-50, .cls-52, .cls-54, .cls-60, .cls-64, .cls-65, .cls-70, .cls-71, .cls-73, .cls-130, .cls-81, .cls-84, .cls-90, .cls-91, .cls-95, .cls-101, .cls-103, .cls-104, .cls-108, .cls-109, .cls-118, .cls-131, .cls-123, .cls-125, .cls-126, .cls-127, .cls-128 {
        mix-blend-mode: multiply;
      }

      .cls-2 {
        fill: url(#_Áåçûìÿííûé_ãðàäèåíò_274);
      }

      .cls-3 {
        fill: url(#_Áåçûìÿííûé_ãðàäèåíò_202-5);
      }

      .cls-4 {
        fill: url(#_35-8);
      }

      .cls-5 {
        fill: #4dfff6;
      }

      .cls-6 {
        fill: url(#_232-3);
      }

      .cls-6, .cls-14, .cls-132, .cls-19, .cls-133, .cls-134, .cls-27, .cls-32, .cls-40, .cls-44, .cls-56, .cls-59, .cls-61, .cls-66, .cls-68, .cls-129, .cls-77, .cls-135, .cls-82, .cls-136, .cls-137, .cls-86, .cls-88, .cls-94, .cls-97, .cls-98, .cls-138, .cls-106, .cls-107, .cls-139, .cls-111, .cls-113, .cls-115, .cls-140, .cls-120 {
        mix-blend-mode: screen;
      }

      .cls-7 {
        fill: url(#_Áåçûìÿííûé_ãðàäèåíò_97-3);
      }

      .cls-8 {
        fill: url(#_450);
      }

      .cls-9 {
        fill: url(#_35-3);
      }

      .cls-10 {
        fill: url(#_13-11);
      }

      .cls-11 {
        fill: url(#_33-2);
      }

      .cls-12 {
        fill: url(#_298-6);
      }

      .cls-13 {
        fill: url(#_Áåçûìÿííûé_ãðàäèåíò_188);
      }

      .cls-14 {
        fill: url(#_6-7);
      }

      .cls-15 {
        fill: url(#_13-17);
      }

      .cls-132, .cls-130 {
        opacity: .2;
      }

      .cls-16 {
        fill: url(#_13-20);
      }

      .cls-17 {
        fill: url(#_13-5);
      }

      .cls-18 {
        fill: url(#_Áåçûìÿííûé_ãðàäèåíò_202-8);
      }

      .cls-19 {
        fill: url(#_6-2);
      }

      .cls-20 {
        fill: url(#_Áåçûìÿííûé_ãðàäèåíò_45-2);
      }

      .cls-21 {
        fill: url(#_452-2);
      }

      .cls-141 {
        fill: url(#_229-3);
      }

      .cls-141, .cls-22, .cls-142, .cls-36, .cls-143, .cls-83, .cls-144 {
        mix-blend-mode: soft-light;
      }

      .cls-141, .cls-36, .cls-143, .cls-144 {
        opacity: .91;
      }

      .cls-22 {
        fill: #bbc5e3;
      }

      .cls-133 {
        fill: url(#_Áåçûìÿííûé_ãðàäèåíò_2);
      }

      .cls-23 {
        fill: url(#_Áåçûìÿííûé_ãðàäèåíò_263);
      }

      .cls-24 {
        fill: url(#_35-9);
      }

      .cls-25 {
        fill: url(#_13-4);
      }

      .cls-134 {
        fill: url(#_542-2);
      }

      .cls-26 {
        fill: url(#_452);
      }

      .cls-142 {
        opacity: .42;
      }

      .cls-27 {
        fill: url(#_446);
      }

      .cls-28 {
        fill: url(#_35-11);
      }

      .cls-29 {
        fill: #9d89b8;
      }

      .cls-30 {
        fill: url(#_35-2);
      }

      .cls-31 {
        fill: url(#_3-2);
      }

      .cls-31, .cls-71 {
        opacity: .4;
      }

      .cls-32 {
        fill: url(#_349);
      }

      .cls-33 {
        fill: url(#_13-10);
      }

      .cls-34 {
        fill: url(#_160);
      }

      .cls-35 {
        fill: url(#_Áåçûìÿííûé_ãðàäèåíò_252);
      }

      .cls-36 {
        fill: url(#_229-2);
      }

      .cls-145, .cls-45, .cls-83 {
        fill: #fff;
      }

      .cls-37 {
        fill: url(#_Áåçûìÿííûé_ãðàäèåíò_202-9);
      }

      .cls-38 {
        fill: url(#_298-7);
      }

      .cls-39 {
        fill: url(#_35-12);
      }

      .cls-40 {
        fill: url(#_6-11);
      }

      .cls-41 {
        fill: url(#_33);
      }

      .cls-42 {
        fill: url(#_Áåçûìÿííûé_ãðàäèåíò_202-6);
      }

      .cls-43 {
        fill: #9b2627;
      }

      .cls-44 {
        fill: url(#_600);
      }

      .cls-46 {
        fill: url(#_13-14);
      }

      .cls-146, .cls-147 {
        fill: none;
      }

      .cls-47 {
        fill: url(#_13-29);
      }

      .cls-143 {
        fill: url(#_229);
      }

      .cls-48 {
        fill: url(#_35-7);
      }

      .cls-49 {
        fill: url(#_174);
      }

      .cls-50, .cls-65 {
        fill: #864577;
      }

      .cls-51 {
        fill: url(#_Áåçûìÿííûé_ãðàäèåíò_202-2);
      }

      .cls-52 {
        fill: url(#_13-21);
      }

      .cls-53 {
        fill: #d2fff1;
      }

      .cls-54 {
        fill: url(#_13-8);
      }

      .cls-148 {
        clip-path: url(#clippath-1);
      }

      .cls-55 {
        fill: url(#_298);
      }

      .cls-149 {
        fill: url(#_229-6);
      }

      .cls-56 {
        fill: url(#_454-3);
      }

      .cls-57 {
        fill: #272e4b;
      }

      .cls-150, .cls-102 {
        fill: #9decfd;
      }

      .cls-58 {
        fill: url(#_Áåçûìÿííûé_ãðàäèåíò_288);
      }

      .cls-151 {
        isolation: isolate;
      }

      .cls-59 {
        fill: url(#_6-5);
      }

      .cls-60 {
        fill: url(#_352-2);
      }

      .cls-60, .cls-82, .cls-118 {
        opacity: .6;
      }

      .cls-61 {
        fill: url(#_6-6);
      }

      .cls-62 {
        fill: url(#_35-4);
      }

      .cls-63 {
        fill: url(#_35-15);
      }

      .cls-64 {
        fill: url(#_13-18);
      }

      .cls-65 {
        opacity: .7;
      }

      .cls-152 {
        fill: #5c396b;
      }

      .cls-66 {
        fill: url(#_353);
      }

      .cls-67 {
        fill: #5e2f0b;
      }

      .cls-68 {
        fill: url(#_232-4);
      }

      .cls-129 {
        fill: url(#_5);
      }

      .cls-69 {
        fill: url(#_Áåçûìÿííûé_ãðàäèåíò_99);
      }

      .cls-70 {
        fill: url(#_Áåçûìÿííûé_ãðàäèåíò_149);
      }

      .cls-71 {
        fill: url(#_3);
      }

      .cls-72 {
        fill: #7d72b3;
      }

      .cls-73 {
        fill: url(#_13-6);
      }

      .cls-74 {
        fill: url(#_298-3);
      }

      .cls-75 {
        fill: url(#_174-2);
      }

      .cls-76 {
        fill: url(#_Áåçûìÿííûé_ãðàäèåíò_202-3);
      }

      .cls-77 {
        fill: url(#_6-8);
      }

      .cls-135 {
        fill: url(#_Áåçûìÿííûé_ãðàäèåíò_287);
      }

      .cls-78 {
        fill: url(#_35-17);
      }

      .cls-79 {
        fill: url(#_298-5);
      }

      .cls-80 {
        fill: url(#_298-2);
      }

      .cls-81 {
        fill: url(#_13-16);
      }

      .cls-82 {
        fill: url(#_327);
      }

      .cls-136 {
        fill: url(#_462);
      }

      .cls-147 {
        clip-rule: evenodd;
      }

      .cls-137 {
        fill: url(#_6-4);
      }

      .cls-84 {
        fill: url(#_13-23);
      }

      .cls-85 {
        fill: url(#_35-16);
      }

      .cls-86 {
        fill: url(#_454);
      }

      .cls-87 {
        fill: url(#_35-10);
      }

      .cls-88 {
        fill: url(#_237);
      }

      .cls-88, .cls-113 {
        opacity: .15;
      }

      .cls-89 {
        fill: url(#_35-6);
      }

      .cls-90 {
        fill: url(#_13);
      }

      .cls-91 {
        fill: url(#_13-9);
      }

      .cls-92 {
        fill: url(#_Áåçûìÿííûé_ãðàäèåíò_97);
      }

      .cls-153 {
        fill: url(#_229-5);
      }

      .cls-93 {
        fill: url(#_35-14);
      }

      .cls-94 {
        fill: url(#_232-2);
      }

      .cls-95 {
        fill: url(#_13-19);
      }

      .cls-96 {
        fill: url(#_Áåçûìÿííûé_ãðàäèåíò_202-4);
      }

      .cls-97 {
        fill: url(#_6-3);
      }

      .cls-154 {
        fill: url(#_992);
      }

      .cls-98 {
        fill: url(#_6);
      }

      .cls-138 {
        fill: url(#_Áåçûìÿííûé_ãðàäèåíò_287-2);
      }

      .cls-99 {
        fill: #bab5ff;
      }

      .cls-100 {
        fill: url(#_35);
      }

      .cls-101 {
        fill: url(#_13-3);
      }

      .cls-103 {
        fill: url(#_13-13);
      }

      .cls-104 {
        fill: url(#_13-2);
      }

      .cls-105 {
        fill: url(#_Áåçûìÿííûé_ãðàäèåíò_202-7);
      }

      .cls-106 {
        fill: url(#_6-9);
      }

      .cls-107 {
        fill: url(#_6-10);
      }

      .cls-108 {
        fill: url(#_13-26);
      }

      .cls-109 {
        fill: url(#_13-27);
      }

      .cls-110 {
        fill: url(#_Áåçûìÿííûé_ãðàäèåíò_97-2);
      }

      .cls-139 {
        fill: url(#_454-2);
      }

      .cls-111 {
        fill: url(#_6-13);
      }

      .cls-112 {
        fill: url(#_35-18);
      }

      .cls-113 {
        fill: url(#_237-2);
      }

      .cls-114 {
        fill: url(#_Áåçûìÿííûé_ãðàäèåíò_202);
      }

      .cls-115 {
        fill: url(#_6-12);
      }

      .cls-144 {
        fill: url(#_229-4);
      }

      .cls-116 {
        fill: url(#_174-3);
      }

      .cls-117 {
        fill: url(#_35-13);
      }

      .cls-155 {
        fill: url(#linear-gradient);
      }

      .cls-118 {
        fill: url(#_352);
      }

      .cls-140 {
        fill: url(#_542);
      }

      .cls-131 {
        fill: url(#_13-25);
        opacity: .51;
      }

      .cls-119 {
        fill: #361537;
      }

      .cls-156 {
        clip-path: url(#clippath);
      }

      .cls-120 {
        fill: url(#_232);
      }

      .cls-121 {
        fill: url(#_Áåçûìÿííûé_ãðàäèåíò_45);
      }

      .cls-122 {
        fill: url(#_298-4);
      }

      .cls-123 {
        fill: url(#_13-12);
      }

      .cls-124 {
        fill: url(#_35-5);
      }

      .cls-125 {
        fill: url(#_13-15);
      }

      .cls-126 {
        fill: url(#_13-22);
      }

      .cls-127 {
        fill: url(#_13-28);
      }

      .cls-128 {
        fill: url(#_13-7);
      }
    </style>
    <clipPath id="clippath">
      <rect class="cls-146" x="-1620" y="-36.05" width="1600" height="276.92"/>
    </clipPath>
    <linearGradient id="linear-gradient" x1="-611.71" y1="182.12" x2="-612.68" y2="68.08" gradientTransform="translate(0 240) scale(1 -1)" gradientUnits="userSpaceOnUse">
      <stop offset="0" stop-color="#7e2a90"/>
      <stop offset="1" stop-color="#441550"/>
    </linearGradient>
    <radialGradient id="_Áåçûìÿííûé_ãðàäèåíò_2" data-name="Áåçûìÿííûé ãðàäèåíò 2" cx="130.38" cy="94.02" fx="130.38" fy="94.02" r="51.52" gradientTransform="translate(202.15 -49.81) rotate(80.72)" gradientUnits="userSpaceOnUse">
      <stop offset="0" stop-color="#ff00c2"/>
      <stop offset=".28" stop-color="#a7007f"/>
      <stop offset=".54" stop-color="#600049"/>
      <stop offset=".75" stop-color="#2c0021"/>
      <stop offset=".91" stop-color="#0c0009"/>
      <stop offset="1" stop-color="#000"/>
    </radialGradient>
    <radialGradient id="_Áåçûìÿííûé_ãðàäèåíò_263" data-name="Áåçûìÿííûé ãðàäèåíò 263" cx="140.12" cy="83.33" fx="140.12" fy="83.33" r="30.64" gradientUnits="userSpaceOnUse">
      <stop offset="0" stop-color="#ffd800"/>
      <stop offset=".85" stop-color="#ff8e00"/>
      <stop offset=".97" stop-color="#ff8e7e"/>
    </radialGradient>
    <linearGradient id="_Áåçûìÿííûé_ãðàäèåíò_202" data-name="Áåçûìÿííûé ãðàäèåíò 202" x1="1338.31" y1="166.77" x2="1338.31" y2="123.08" gradientUnits="userSpaceOnUse">
      <stop offset="0" stop-color="#ff521a"/>
      <stop offset="1" stop-color="#db381f"/>
    </linearGradient>
    <radialGradient id="_Áåçûìÿííûé_ãðàäèåíò_99" data-name="Áåçûìÿííûé ãðàäèåíò 99" cx="1264.3" cy="88.86" fx="1264.3" fy="88.86" r="92.99" gradientUnits="userSpaceOnUse">
      <stop offset="0" stop-color="#ffc827"/>
      <stop offset=".37" stop-color="#ff9e25"/>
      <stop offset=".87" stop-color="#ff741f"/>
      <stop offset="1" stop-color="#ff9589"/>
    </radialGradient>
    <linearGradient id="_Áåçûìÿííûé_ãðàäèåíò_202-2" data-name="Áåçûìÿííûé ãðàäèåíò 202" x1="1240.92" y1="85.76" x2="1240.92" y2="46.5" xlink:href="#_Áåçûìÿííûé_ãðàäèåíò_202"/>
    <linearGradient id="_Áåçûìÿííûé_ãðàäèåíò_202-3" data-name="Áåçûìÿííûé ãðàäèåíò 202" x1="1277.55" y1="59.58" x2="1277.55" y2="46.24" xlink:href="#_Áåçûìÿííûé_ãðàäèåíò_202"/>
    <linearGradient id="_Áåçûìÿííûé_ãðàäèåíò_202-4" data-name="Áåçûìÿííûé ãðàäèåíò 202" x1="1245.12" y1="107.36" x2="1245.12" y2="89.78" xlink:href="#_Áåçûìÿííûé_ãðàäèåíò_202"/>
    <linearGradient id="_Áåçûìÿííûé_ãðàäèåíò_202-5" data-name="Áåçûìÿííûé ãðàäèåíò 202" x1="1220.82" y1="159.86" x2="1220.82" y2="95.56" xlink:href="#_Áåçûìÿííûé_ãðàäèåíò_202"/>
    <linearGradient id="_Áåçûìÿííûé_ãðàäèåíò_202-6" data-name="Áåçûìÿííûé ãðàäèåíò 202" x1="1245.5" y1="128.63" x2="1245.5" y2="122.23" xlink:href="#_Áåçûìÿííûé_ãðàäèåíò_202"/>
    <linearGradient id="_Áåçûìÿííûé_ãðàäèåíò_202-7" data-name="Áåçûìÿííûé ãðàäèåíò 202" x1="1310.65" y1="156.43" x2="1310.65" y2="115.23" xlink:href="#_Áåçûìÿííûé_ãðàäèåíò_202"/>
    <linearGradient id="_Áåçûìÿííûé_ãðàäèåíò_202-8" data-name="Áåçûìÿííûé ãðàäèåíò 202" x1="1283.84" y1="185.11" x2="1283.84" y2="170.77" xlink:href="#_Áåçûìÿííûé_ãðàäèåíò_202"/>
    <linearGradient id="_Áåçûìÿííûé_ãðàäèåíò_202-9" data-name="Áåçûìÿííûé ãðàäèåíò 202" x1="1339.82" y1="115.59" x2="1339.82" y2="95.5" xlink:href="#_Áåçûìÿííûé_ãðàäèåíò_202"/>
    <radialGradient id="_Áåçûìÿííûé_ãðàäèåíò_188" data-name="Áåçûìÿííûé ãðàäèåíò 188" cx="1316.98" cy="50.88" fx="1316.98" fy="50.88" r="10.84" gradientUnits="userSpaceOnUse">
      <stop offset="0" stop-color="#ffc727"/>
      <stop offset="1" stop-color="#ffab1f"/>
    </radialGradient>
    <linearGradient id="_Áåçûìÿííûé_ãðàäèåíò_252" data-name="Áåçûìÿííûé ãðàäèåíò 252" x1="229.86" y1="181.26" x2="229.86" y2="148.16" gradientUnits="userSpaceOnUse">
      <stop offset="0" stop-color="#9089bf"/>
      <stop offset="1" stop-color="#d1bdf1"/>
    </linearGradient>
    <linearGradient id="_Áåçûìÿííûé_ãðàäèåíò_97" data-name="Áåçûìÿííûé ãðàäèåíò 97" x1="261.48" y1="179.03" x2="261.48" y2="123.09" gradientUnits="userSpaceOnUse">
      <stop offset="0" stop-color="#aea9d0"/>
      <stop offset="1" stop-color="#eae1f9"/>
    </linearGradient>
    <linearGradient id="_Áåçûìÿííûé_ãðàäèåíò_288" data-name="Áåçûìÿííûé ãðàäèåíò 288" x1="267.58" y1="154.94" x2="267.58" y2="124.94" gradientUnits="userSpaceOnUse">
      <stop offset="0" stop-color="#6a6fe2"/>
      <stop offset="1" stop-color="#5b2d74"/>
    </linearGradient>
    <linearGradient id="_Áåçûìÿííûé_ãðàäèåíò_274" data-name="Áåçûìÿííûé ãðàäèåíò 274" x1="220.13" y1="151.51" x2="302.83" y2="151.51" gradientUnits="userSpaceOnUse">
      <stop offset="0" stop-color="#8b7cbd"/>
      <stop offset="1" stop-color="#724577"/>
    </linearGradient>
    <linearGradient id="_Áåçûìÿííûé_ãðàäèåíò_97-2" data-name="Áåçûìÿííûé ãðàäèåíò 97" x1="177.79" y1="169.89" x2="235" y2="169.89" xlink:href="#_Áåçûìÿííûé_ãðàäèåíò_97"/>
    <linearGradient id="_Áåçûìÿííûé_ãðàäèåíò_97-3" data-name="Áåçûìÿííûé ãðàäèåíò 97" x1="299.13" y1="165.77" x2="336.38" y2="165.77" xlink:href="#_Áåçûìÿííûé_ãðàäèåíò_97"/>
    <radialGradient id="_Áåçûìÿííûé_ãðàäèåíò_45" data-name="Áåçûìÿííûé ãðàäèåíò 45" cx="205.84" cy="165.22" fx="205.84" fy="165.22" r="6.42" gradientUnits="userSpaceOnUse">
      <stop offset="0" stop-color="#55dbd6"/>
      <stop offset="1" stop-color="#4aa1ff"/>
    </radialGradient>
    <radialGradient id="_Áåçûìÿííûé_ãðàäèåíò_45-2" data-name="Áåçûìÿííûé ãðàäèåíò 45" cx="319.64" cy="164.36" fx="319.64" fy="164.36" r="5.57" xlink:href="#_Áåçûìÿííûé_ãðàäèåíò_45"/>
    <linearGradient id="_Áåçûìÿííûé_ãðàäèåíò_149" data-name="Áåçûìÿííûé ãðàäèåíò 149" x1="242.24" y1="139.11" x2="272.03" y2="139.11" gradientUnits="userSpaceOnUse">
      <stop offset="0" stop-color="#c77cbd"/>
      <stop offset="1" stop-color="#974577"/>
    </linearGradient>
    <radialGradient id="_Áåçûìÿííûé_ãðàäèåíò_287" data-name="Áåçûìÿííûé ãðàäèåíò 287" cx="296.02" cy="157.24" fx="296.02" fy="157.24" r="9.4" gradientUnits="userSpaceOnUse">
      <stop offset="0" stop-color="#0056ff"/>
      <stop offset="1" stop-color="#000"/>
    </radialGradient>
    <radialGradient id="_Áåçûìÿííûé_ãðàäèåíò_287-2" data-name="Áåçûìÿííûé ãðàäèåíò 287" cx="255.59" cy="159.64" fx="255.59" fy="159.64" r="9.4" gradientTransform="translate(187.74 -133.97) rotate(45)" xlink:href="#_Áåçûìÿííûé_ãðàäèåíò_287"/>
    <radialGradient id="_542" data-name="  542" cx="531.74" cy="110.85" fx="531.74" fy="110.85" r="83.27" gradientTransform="translate(234.12 -343.53) rotate(45)" gradientUnits="userSpaceOnUse">
      <stop offset="0" stop-color="#e213ff"/>
      <stop offset="1" stop-color="#000"/>
    </radialGradient>
    <radialGradient id="_542-2" data-name="  542" cx="531.74" cy="110.85" fx="531.74" fy="110.85" r="71.61" gradientTransform="translate(564.75 -431.32) rotate(81.71)" xlink:href="#_542"/>
    <radialGradient id="_452" data-name="  452" cx="-239.62" cy="958.66" fx="-239.62" fy="958.66" r="31.45" gradientTransform="translate(-413.1 316.95) rotate(88.49) scale(1 -1)" gradientUnits="userSpaceOnUse">
      <stop offset="0" stop-color="#ffbdf3"/>
      <stop offset=".12" stop-color="#f8b7f2"/>
      <stop offset=".3" stop-color="#e4a8ef"/>
      <stop offset=".49" stop-color="#c892ec"/>
      <stop offset=".62" stop-color="#b180e9"/>
      <stop offset=".89" stop-color="#7954e2"/>
      <stop offset="1" stop-color="#6041e0"/>
    </radialGradient>
    <radialGradient id="_454" data-name="  454" cx="-402.64" cy="1765.46" fx="-402.64" fy="1765.46" r="22.53" gradientTransform="translate(-968.57 507.33) rotate(88.5) scale(1.01 -.86)" gradientUnits="userSpaceOnUse">
      <stop offset="0" stop-color="#0092ff"/>
      <stop offset=".13" stop-color="#008ffa"/>
      <stop offset=".25" stop-color="#08e"/>
      <stop offset=".38" stop-color="#007cd9"/>
      <stop offset=".5" stop-color="#006bbc"/>
      <stop offset=".63" stop-color="#005696"/>
      <stop offset=".76" stop-color="#003c68"/>
      <stop offset=".89" stop-color="#001d33"/>
      <stop offset="1" stop-color="#000"/>
    </radialGradient>
    <linearGradient id="_3" data-name="  3" x1="-243.82" y1="976.21" x2="-223.41" y2="976.21" gradientTransform="translate(-413.1 316.95) rotate(88.49) scale(1 -1)" gradientUnits="userSpaceOnUse">
      <stop offset="0" stop-color="#b8c2ff"/>
      <stop offset="1" stop-color="#7d72b3"/>
    </linearGradient>
    <radialGradient id="_992" data-name="  992" cx="516.71" cy="76.78" fx="516.71" fy="76.78" r="97.96" gradientUnits="userSpaceOnUse">
      <stop offset="0" stop-color="#8c9dff"/>
      <stop offset=".13" stop-color="#8998fb"/>
      <stop offset=".27" stop-color="#828bef"/>
      <stop offset=".41" stop-color="#7776db"/>
      <stop offset=".55" stop-color="#6858c0"/>
      <stop offset=".7" stop-color="#54329d"/>
      <stop offset=".84" stop-color="#3c0573"/>
      <stop offset=".87" stop-color="#410678"/>
      <stop offset=".91" stop-color="#510a89"/>
      <stop offset=".95" stop-color="#6b10a4"/>
      <stop offset="1" stop-color="#8f19ca"/>
      <stop offset="1" stop-color="#911acc"/>
    </radialGradient>
    <linearGradient id="_352" data-name="  352" x1="547.82" y1="100.3" x2="570.5" y2="164.95" gradientUnits="userSpaceOnUse">
      <stop offset="0" stop-color="#280077"/>
      <stop offset="1" stop-color="#eaaee6"/>
    </linearGradient>
    <radialGradient id="_600" data-name="  600" cx="509.19" cy="73.62" fx="509.19" fy="73.62" r="84.79" gradientUnits="userSpaceOnUse">
      <stop offset="0" stop-color="#ffffd9"/>
      <stop offset="1" stop-color="#000"/>
    </radialGradient>
    <linearGradient id="_446" data-name="  446" x1="1440.39" y1="-1481.56" x2="1536.95" y2="-1481.56" gradientTransform="translate(-1265.66 1162.11) rotate(13.74)" gradientUnits="userSpaceOnUse">
      <stop offset=".02" stop-color="#27a2d9"/>
      <stop offset="1" stop-color="#000"/>
    </linearGradient>
    <radialGradient id="_450" data-name="  450" cx="-4721.26" cy="3021.4" fx="-4721.26" fy="3021.4" r="51.23" gradientTransform="translate(1556.29 -5436.52) rotate(-46.92)" gradientUnits="userSpaceOnUse">
      <stop offset="0" stop-color="#ffbdf3"/>
      <stop offset=".12" stop-color="#f8b7f2"/>
      <stop offset=".3" stop-color="#e4a8ef"/>
      <stop offset=".51" stop-color="#c590ec"/>
      <stop offset=".74" stop-color="#996de6"/>
      <stop offset=".99" stop-color="#6142e0"/>
      <stop offset="1" stop-color="#6041e0"/>
    </radialGradient>
    <radialGradient id="_33" data-name="  33" cx="368.81" cy="396.52" fx="368.81" fy="396.52" r="54.1" gradientTransform="translate(175.38 -256.5) rotate(-1.93)" gradientUnits="userSpaceOnUse">
      <stop offset="0" stop-color="#ae9dfc"/>
      <stop offset=".16" stop-color="#a896fc"/>
      <stop offset=".4" stop-color="#9982fc"/>
      <stop offset=".68" stop-color="#8063fd"/>
      <stop offset=".99" stop-color="#5e37fe"/>
      <stop offset="1" stop-color="#5e37ff"/>
    </radialGradient>
    <radialGradient id="_160" data-name="  160" cx="362.08" cy="373.34" fx="362.08" fy="373.34" r="20.16" gradientTransform="translate(175.38 -256.5) rotate(-1.93)" gradientUnits="userSpaceOnUse">
      <stop offset="0" stop-color="#f0fffc"/>
      <stop offset=".22" stop-color="#e9fefc"/>
      <stop offset=".54" stop-color="#d5fdfd"/>
      <stop offset=".92" stop-color="#b6fcfe"/>
      <stop offset="1" stop-color="#affcff"/>
    </radialGradient>
    <radialGradient id="_454-2" data-name="  454" cx="4780.16" cy="-7242.57" fx="4780.16" fy="-7242.57" r="40.2" gradientTransform="translate(-3256.06 -3303.05) rotate(90) scale(.71 .53)" xlink:href="#_454"/>
    <linearGradient id="_349" data-name="  349" x1="537.17" y1="76.01" x2="539.35" y2="84.39" gradientUnits="userSpaceOnUse">
      <stop offset=".02" stop-color="#e95a29"/>
      <stop offset=".16" stop-color="#ba4820"/>
      <stop offset=".39" stop-color="#792e15"/>
      <stop offset=".59" stop-color="#451a0c"/>
      <stop offset=".77" stop-color="#1f0c05"/>
      <stop offset=".91" stop-color="#080301"/>
      <stop offset="1" stop-color="#000"/>
    </linearGradient>
    <linearGradient id="_352-2" data-name="  352" x1="479.05" y1="114.91" x2="506.25" y2="192.45" xlink:href="#_352"/>
    <radialGradient id="_33-2" data-name="  33" cx="-271.18" cy="1000.34" fx="-271.18" fy="1000.34" r="19.07" gradientTransform="translate(594.83 -887.79) rotate(-8.47)" xlink:href="#_33"/>
    <clipPath id="clippath-1">
      <path id="SVGID" class="cls-147" d="M485.17,124.89c-6.37-13.84-13.72-19-13.72-19l-8.09,5.37-17.78,8.3,10.75,37.28,20.38-3.37s11.58-.95,18.82.66c0,0-2.58-12.34-10.36-29.23Z"/>
    </clipPath>
    <radialGradient id="_454-3" data-name="  454" cx="-432.38" cy="1795.47" fx="-432.38" fy="1795.47" r="22.53" gradientTransform="translate(686.52 -1467.85) rotate(-8.47) scale(1.01 .86)" xlink:href="#_454"/>
    <radialGradient id="_452-2" data-name="  452" cx="-272.13" cy="970.47" fx="-272.13" fy="970.47" r="31.42" gradientTransform="translate(594.83 -887.79) rotate(-8.47)" xlink:href="#_452"/>
    <linearGradient id="_3-2" data-name="  3" x1="-272.11" y1="1006.22" x2="-250.7" y2="1006.22" gradientTransform="translate(594.83 -887.79) rotate(-8.47)" xlink:href="#_3"/>
    <radialGradient id="_353" data-name="  353" cx="5276.31" cy="4785.32" fx="5276.31" fy="4785.32" r="29.66" gradientTransform="translate(-2278.71 -2276.7) rotate(-1.92) scale(.53)" gradientUnits="userSpaceOnUse">
      <stop offset="0" stop-color="#0092ff"/>
      <stop offset=".06" stop-color="#0081e2"/>
      <stop offset=".16" stop-color="#0063ae"/>
      <stop offset=".26" stop-color="#00497f"/>
      <stop offset=".37" stop-color="#003258"/>
      <stop offset=".49" stop-color="#002038"/>
      <stop offset=".6" stop-color="#00121f"/>
      <stop offset=".72" stop-color="#00070d"/>
      <stop offset=".85" stop-color="#000103"/>
      <stop offset="1" stop-color="#000"/>
    </radialGradient>
    <radialGradient id="_462" data-name="  462" cx="-4249.42" cy="2696.37" fx="-4249.42" fy="2696.37" r="19.43" gradientTransform="translate(7203.94 -2623.4) scale(1.58 1)" gradientUnits="userSpaceOnUse">
      <stop offset="0" stop-color="#27a2d9"/>
      <stop offset=".07" stop-color="#2392c4"/>
      <stop offset=".32" stop-color="#165f7f"/>
      <stop offset=".55" stop-color="#0d3648"/>
      <stop offset=".75" stop-color="#051821"/>
      <stop offset=".9" stop-color="#010608"/>
      <stop offset="1" stop-color="#000"/>
    </radialGradient>
    <radialGradient id="_5" data-name="  5" cx="187.96" cy="155.15" fx="187.96" fy="155.15" r="46.28" gradientTransform="translate(467.38 -247.79) scale(2.56 2.34)" gradientUnits="userSpaceOnUse">
      <stop offset="0" stop-color="#0900cb"/>
      <stop offset="1" stop-color="#000"/>
    </radialGradient>
    <linearGradient id="_298" data-name="  298" x1="878.57" y1="18.97" x2="878.57" y2="152.13" gradientUnits="userSpaceOnUse">
      <stop offset="0" stop-color="#5612a1"/>
      <stop offset="1" stop-color="#9000b0"/>
    </linearGradient>
    <linearGradient id="_35" data-name="  35" x1="879.25" y1="147.98" x2="893.23" y2="66.04" gradientUnits="userSpaceOnUse">
      <stop offset="0" stop-color="#4f0bc0"/>
      <stop offset="1" stop-color="#b10cd9"/>
    </linearGradient>
    <linearGradient id="_13" data-name="  13" x1="880.24" y1="103.04" x2="879.69" y2="100.94" gradientUnits="userSpaceOnUse">
      <stop offset="0" stop-color="#3445a1"/>
      <stop offset="1" stop-color="#191e84"/>
    </linearGradient>
    <linearGradient id="_298-2" data-name="  298" x1="840.64" y1="18.97" x2="840.64" y2="152.13" xlink:href="#_298"/>
    <linearGradient id="_35-2" data-name="  35" x1="842.23" y1="164.48" x2="862.85" y2="43.6" xlink:href="#_35"/>
    <linearGradient id="_13-2" data-name="  13" x1="844.07" y1="99.75" x2="842.92" y2="95.33" xlink:href="#_13"/>
    <linearGradient id="_298-3" data-name="  298" x1="883.58" y1="18.97" x2="883.58" y2="152.13" xlink:href="#_298"/>
    <linearGradient id="_35-3" data-name="  35" x1="879.4" y1="88.84" x2="900.3" y2="-33.65" xlink:href="#_35"/>
    <linearGradient id="_174" data-name="  174" x1="887.1" y1="58.63" x2="891.7" y2="31.66" gradientUnits="userSpaceOnUse">
      <stop offset="0" stop-color="#4f0bc0"/>
      <stop offset="1" stop-color="#c822f0"/>
    </linearGradient>
    <linearGradient id="_13-3" data-name="  13" x1="886.22" y1="21.16" x2="885.39" y2="17.97" xlink:href="#_13"/>
    <linearGradient id="_298-4" data-name="  298" x1="1019.5" y1="18.97" x2="1019.5" y2="152.13" xlink:href="#_298"/>
    <linearGradient id="_35-4" data-name="  35" x1="990.61" y1="99.33" x2="1011.18" y2="-21.24" xlink:href="#_35"/>
    <linearGradient id="_174-2" data-name="  174" x1="1009.79" y1="78.6" x2="1019.83" y2="19.75" xlink:href="#_174"/>
    <linearGradient id="_13-4" data-name="  13" x1="1025.42" y1="27.25" x2="1024.36" y2="23.17" xlink:href="#_13"/>
    <linearGradient id="_35-5" data-name="  35" x1="839.5" y1="150.7" x2="843.44" y2="127.59" xlink:href="#_35"/>
    <linearGradient id="_35-6" data-name="  35" x1="864.41" y1="179.19" x2="867.14" y2="163.21" xlink:href="#_35"/>
    <linearGradient id="_35-7" data-name="  35" x1="896.24" y1="199.97" x2="899.74" y2="179.49" xlink:href="#_35"/>
    <linearGradient id="_35-8" data-name="  35" x1="899.37" y1="199.49" x2="908.29" y2="147.23" xlink:href="#_35"/>
    <linearGradient id="_35-9" data-name="  35" x1="961.49" y1="183.49" x2="967.83" y2="146.35" xlink:href="#_35"/>
    <linearGradient id="_35-10" data-name="  35" x1="931.13" y1="174" x2="940.32" y2="120.13" xlink:href="#_35"/>
    <linearGradient id="_35-11" data-name="  35" x1="949.8" y1="139.21" x2="952.83" y2="121.43" xlink:href="#_35"/>
    <linearGradient id="_35-12" data-name="  35" x1="938.8" y1="125.99" x2="940.72" y2="114.69" xlink:href="#_35"/>
    <linearGradient id="_35-13" data-name="  35" x1="948.18" y1="216.69" x2="955.73" y2="172.4" xlink:href="#_35"/>
    <linearGradient id="_35-14" data-name="  35" x1="1026.49" y1="173.21" x2="1032.29" y2="139.27" xlink:href="#_35"/>
    <linearGradient id="_35-15" data-name="  35" x1="998.2" y1="167.38" x2="1004.81" y2="128.66" xlink:href="#_35"/>
    <linearGradient id="_35-16" data-name="  35" x1="937.66" y1="237.96" x2="946.23" y2="187.68" xlink:href="#_35"/>
    <linearGradient id="_13-5" data-name="  13" x1="841.08" y1="157.74" x2="840.02" y2="153.68" xlink:href="#_13"/>
    <linearGradient id="_13-6" data-name="  13" x1="842.28" y1="189.63" x2="840.59" y2="183.17" xlink:href="#_13"/>
    <linearGradient id="_13-7" data-name="  13" x1="873.31" y1="182.36" x2="872.8" y2="180.4" xlink:href="#_13"/>
    <linearGradient id="_13-8" data-name="  13" x1="963.91" y1="157.7" x2="963.18" y2="154.9" xlink:href="#_13"/>
    <linearGradient id="_13-9" data-name="  13" x1="941.53" y1="140.62" x2="940.92" y2="138.32" xlink:href="#_13"/>
    <linearGradient id="_13-10" data-name="  13" x1="949.62" y1="127.74" x2="949.33" y2="126.65" xlink:href="#_13"/>
    <linearGradient id="_13-11" data-name="  13" x1="890.6" y1="212.81" x2="889.35" y2="208" xlink:href="#_13"/>
    <linearGradient id="_13-12" data-name="  13" x1="995.73" y1="201.83" x2="994.43" y2="196.84" xlink:href="#_13"/>
    <linearGradient id="_13-13" data-name="  13" x1="1026.79" y1="170.93" x2="1026.03" y2="168.03" xlink:href="#_13"/>
    <linearGradient id="_13-14" data-name="  13" x1="941.27" y1="244.99" x2="939.79" y2="239.31" xlink:href="#_13"/>
    <linearGradient id="_13-15" data-name="  13" x1="937.99" y1="212.08" x2="937.13" y2="208.77" xlink:href="#_13"/>
    <linearGradient id="_13-16" data-name="  13" x1="864.98" y1="184.94" x2="864.2" y2="181.93" xlink:href="#_13"/>
    <linearGradient id="_13-17" data-name="  13" x1="896.42" y1="205.75" x2="896.42" y2="161.03" xlink:href="#_13"/>
    <linearGradient id="_13-18" data-name="  13" x1="856.13" y1="186.01" x2="854.45" y2="179.56" xlink:href="#_13"/>
    <linearGradient id="_13-19" data-name="  13" x1="834.76" y1="183.49" x2="846.31" y2="115.81" xlink:href="#_13"/>
    <linearGradient id="_13-20" data-name="  13" x1="914.88" y1="228.05" x2="936.94" y2="98.79" xlink:href="#_13"/>
    <linearGradient id="_13-21" data-name="  13" x1="973.51" y1="196.53" x2="971.98" y2="190.7" xlink:href="#_13"/>
    <linearGradient id="_13-22" data-name="  13" x1="1009.41" y1="198.27" x2="1008.11" y2="193.27" xlink:href="#_13"/>
    <linearGradient id="_13-23" data-name="  13" x1="1001.42" y1="209.72" x2="1017.49" y2="115.56" xlink:href="#_13"/>
    <linearGradient id="_13-24" data-name="  13" x1="1016.62" y1="174.25" x2="1015.37" y2="169.45" xlink:href="#_13"/>
    <linearGradient id="_13-25" data-name="  13" x1="943.5" y1="216.42" x2="935.56" y2="144.53" xlink:href="#_13"/>
    <linearGradient id="_327" data-name="  327" x1="925.22" y1="245.64" x2="934.33" y2="145.4" gradientUnits="userSpaceOnUse">
      <stop offset="0" stop-color="#433fff"/>
      <stop offset="1" stop-color="#000"/>
    </linearGradient>
    <linearGradient id="_298-5" data-name="  298" x1="1058.09" y1="18.97" x2="1058.09" y2="152.13" xlink:href="#_298"/>
    <linearGradient id="_174-3" data-name="  174" x1="1038.5" y1="164.66" x2="1058.67" y2="46.48" xlink:href="#_174"/>
    <linearGradient id="_13-26" data-name="  13" x1="1065.48" y1="96.4" x2="1064.48" y2="92.57" xlink:href="#_13"/>
    <linearGradient id="_13-27" data-name="  13" x1="1070.79" y1="116.75" x2="1068.85" y2="109.35" xlink:href="#_13"/>
    <linearGradient id="_229" data-name="  229" x1="904.68" y1="132.2" x2="895.64" y2="46.52" gradientUnits="userSpaceOnUse">
      <stop offset=".03" stop-color="#83ffea"/>
      <stop offset="1" stop-color="#67dbff"/>
    </linearGradient>
    <linearGradient id="_229-2" data-name="  229" x1="847.32" y1="133.63" x2="878.57" y2="133.63" xlink:href="#_229"/>
    <linearGradient id="_229-3" data-name="  229" x1="1000.35" y1="140.99" x2="991.11" y2="53.38" xlink:href="#_229"/>
    <linearGradient id="_229-4" data-name="  229" x1="1045.57" y1="147.45" x2="1042.67" y2="119.94" xlink:href="#_229"/>
    <radialGradient id="_232" data-name="  232" cx="-393.01" cy="536.32" fx="-393.01" fy="536.32" r=".28" gradientTransform="translate(557.2 1612.3) rotate(159.36) scale(2.53 2.37) skewX(3.46)" gradientUnits="userSpaceOnUse">
      <stop offset="0" stop-color="aqua"/>
      <stop offset="1" stop-color="#000"/>
    </radialGradient>
    <radialGradient id="_232-2" data-name="  232" cx="-400.14" cy="543.29" fx="-400.14" fy="543.29" r="1.13" xlink:href="#_232"/>
    <radialGradient id="_232-3" data-name="  232" cx="-394.45" cy="527.94" fx="-394.45" fy="527.94" r=".56" xlink:href="#_232"/>
    <radialGradient id="_232-4" data-name="  232" cx="-124.79" cy="650.76" fx="-124.79" fy="650.76" r=".64" gradientTransform="translate(302.42 1508.79) rotate(-168.74) scale(2.55 2.35) skewX(-2.01)" xlink:href="#_232"/>
    <radialGradient id="_237" data-name="  237" cx="-126.33" cy="634.53" fx="-126.33" fy="634.53" r="1.56" gradientTransform="translate(302.42 1508.79) rotate(-168.74) scale(2.55 2.35) skewX(-2.01)" gradientUnits="userSpaceOnUse">
      <stop offset="0" stop-color="aqua"/>
      <stop offset=".37" stop-color="#00fdfd"/>
      <stop offset=".51" stop-color="#00f6f6"/>
      <stop offset=".6" stop-color="#00eaea"/>
      <stop offset=".68" stop-color="#00d9d9"/>
      <stop offset=".75" stop-color="#00c3c3"/>
      <stop offset=".8" stop-color="#00a8a8"/>
      <stop offset=".86" stop-color="#008787"/>
      <stop offset=".91" stop-color="#006262"/>
      <stop offset=".95" stop-color="#003737"/>
      <stop offset=".99" stop-color="#000909"/>
      <stop offset="1" stop-color="#000"/>
    </radialGradient>
    <radialGradient id="_237-2" data-name="  237" cx="-133.2" cy="654.87" fx="-133.2" fy="654.87" r=".71" xlink:href="#_237"/>
    <linearGradient id="_229-5" data-name="  229" x1="890.97" y1="49.43" x2="890.1" y2="41.18" xlink:href="#_229"/>
    <linearGradient id="_229-6" data-name="  229" x1="891.69" y1="105.42" x2="889.97" y2="89.12" xlink:href="#_229"/>
    <radialGradient id="_6" data-name="  6" cx="221.57" cy="148.95" fx="221.57" fy="148.95" r="3.36" gradientTransform="translate(467.38 -247.79) scale(2.56 2.34)" gradientUnits="userSpaceOnUse">
      <stop offset="0" stop-color="#2039f9"/>
      <stop offset=".08" stop-color="#1b30d5"/>
      <stop offset=".22" stop-color="#14249d"/>
      <stop offset=".36" stop-color="#0e196d"/>
      <stop offset=".49" stop-color="#091046"/>
      <stop offset=".63" stop-color="#050927"/>
      <stop offset=".76" stop-color="#020411"/>
      <stop offset=".88" stop-color="#000104"/>
      <stop offset="1" stop-color="#000"/>
    </radialGradient>
    <radialGradient id="_6-2" data-name="  6" cx="221.57" cy="149.31" fx="221.57" fy="149.31" r="4.23" xlink:href="#_6"/>
    <radialGradient id="_6-3" data-name="  6" cx="186.12" cy="134.46" fx="186.12" fy="134.46" r="2.48" xlink:href="#_6"/>
    <radialGradient id="_6-4" data-name="  6" cx="186.62" cy="134.72" fx="186.62" fy="134.72" r="2.48" xlink:href="#_6"/>
    <radialGradient id="_6-5" data-name="  6" cx="5977.91" cy="-1387.37" fx="5977.91" fy="-1387.37" r="25.96" gradientTransform="translate(-186.92 188.37) rotate(18.73) scale(.18 .34) skewX(-6.32)" xlink:href="#_6"/>
    <radialGradient id="_6-6" data-name="  6" cx="5977.91" cy="-1387.37" fx="5977.91" fy="-1387.37" r="25.96" gradientTransform="translate(-186.92 188.37) rotate(18.73) scale(.18 .34) skewX(-6.32)" xlink:href="#_6"/>
    <radialGradient id="_6-7" data-name="  6" cx="5977.91" cy="-1387.37" fx="5977.91" fy="-1387.37" r="25.96" gradientTransform="translate(-186.92 188.37) rotate(18.73) scale(.18 .34) skewX(-6.32)" xlink:href="#_6"/>
    <radialGradient id="_6-8" data-name="  6" cx="6176.23" cy="-474.44" fx="6176.23" fy="-474.44" r="49.84" gradientTransform="translate(-203.28 220.02) scale(.18 .33)" xlink:href="#_6"/>
    <radialGradient id="_6-9" data-name="  6" cx="6176.23" cy="-474.44" fx="6176.23" fy="-474.44" r="49.84" gradientTransform="translate(-203.28 220.02) scale(.18 .33)" xlink:href="#_6"/>
    <radialGradient id="_6-10" data-name="  6" cx="6176.23" cy="-474.44" fx="6176.23" fy="-474.44" r="49.84" gradientTransform="translate(-203.28 220.02) scale(.18 .33)" xlink:href="#_6"/>
    <radialGradient id="_6-11" data-name="  6" cx="49.9" cy="775.58" fx="49.9" fy="775.58" r="2.83" gradientTransform="translate(-1032.99 405.43) rotate(-92.8) scale(4.23 2.56) skewX(-.28)" xlink:href="#_6"/>
    <radialGradient id="_6-12" data-name="  6" cx="49.9" cy="775.58" fx="49.9" fy="775.58" r="2.83" gradientTransform="translate(-1032.99 405.43) rotate(-92.8) scale(4.23 2.56) skewX(-.28)" xlink:href="#_6"/>
    <radialGradient id="_6-13" data-name="  6" cx="49.9" cy="775.58" fx="49.9" fy="775.58" r="2.83" gradientTransform="translate(-1032.99 405.43) rotate(-92.8) scale(4.23 2.56) skewX(-.28)" xlink:href="#_6"/>
    <linearGradient id="_298-6" data-name="  298" x1="803.89" y1="-669.52" x2="803.89" y2="-535.01" gradientTransform="translate(40.27 28.09) rotate(27.32)" xlink:href="#_298"/>
    <linearGradient id="_35-17" data-name="  35" x1="804.11" y1="-385.47" x2="814.26" y2="-444.99" gradientTransform="translate(40.27 28.09) rotate(27.32)" xlink:href="#_35"/>
    <linearGradient id="_13-28" data-name="  13" x1="804.01" y1="-419.31" x2="803.58" y2="-420.97" gradientTransform="translate(40.27 28.09) rotate(27.32)" xlink:href="#_13"/>
    <linearGradient id="_298-7" data-name="  298" x1="-923.66" y1="716.91" x2="-923.66" y2="853.15" gradientTransform="translate(-86.38 28.09) rotate(152.68) scale(1 -1)" xlink:href="#_298"/>
    <linearGradient id="_35-18" data-name="  35" x1="-924.43" y1="513.87" x2="-918.61" y2="479.79" gradientTransform="translate(-86.38 28.09) rotate(152.68) scale(1 -1)" xlink:href="#_35"/>
    <linearGradient id="_13-29" data-name="  13" x1="-924.41" y1="494.94" x2="-924.64" y2="494.06" gradientTransform="translate(-86.38 28.09) rotate(152.68) scale(1 -1)" xlink:href="#_13"/>
  </defs>
  <g class="cls-151">
    <g id="Layer_1" data-name="Layer 1">
      <g class="cls-151">
        <g id="Layer_1-2" data-name="Layer 1">
          <g class="cls-156">
            <path class="cls-155" d="M405.21,275.69l-2037.34-25.16,1.42-165.75,71.86-3.26,159.98-7.24-.73-17.02,330.47-46.41-16.32,38.97,10.32.09-3.57,13.76,245.02,5.73,13.73-13.95s36.55-.46,47.78.39c11.22.85,181.18,24.18,181.18,24.18l41.74.35h0l297.05,2.49,113.25-16.24,52.31,1.16-3.27,16.29,467.8,27.17,27.32,164.44h0Z"/>
          </g>
        </g>
      </g>
      <g>
        <circle class="cls-133" cx="130.38" cy="94.02" r="51.52" transform="translate(16.58 207.54) rotate(-80.72)"/>
        <path class="cls-145" d="M138.15,120.8c-8.89,0-20.26-6.96-26.3-16.72-6.3-10.17-7.31-17.68-3.62-26.77,1.44-3.55,7.68-5.5,12.66-6.51,11.71-2.38,29.2-1.91,33.34,2.24,3.45,3.45,2.5,16.35-.15,26.74-2.93,11.48-7.38,19.14-11.92,20.47h0c-1.26.37-2.61.55-4.02.55ZM136.09,70.15c-4.96,0-10.28.45-15.04,1.42-6.78,1.37-11.08,3.52-12.1,6.04-3.63,8.95-2.67,16.01,3.56,26.07,6.71,10.85,20.75,18.39,29.44,15.83h0c4.21-1.24,8.57-8.87,11.38-19.91,3-11.77,3.16-23.19.35-26-2.21-2.21-9.43-3.45-17.6-3.45Z"/>
        <path class="cls-145" d="M128.98,114.01c-3.58,0-7.08-.41-10.3-1.11-9.07-1.97-15.83-6.2-16.83-10.52-1.37-5.96,2.15-16.37,8.19-24.22,4.86-6.32,10.49-9.9,15.86-10.07.12,0,.24,0,.36,0,9.97,0,22.83,13.16,27.76,22.77,2.68,5.22,3.17,9.36,1.39,11.68h0c-6.51,8.47-16.74,11.48-26.43,11.48ZM126.25,68.85c-.11,0-.22,0-.33,0-5.12.17-10.55,3.64-15.26,9.77-5.91,7.69-9.37,17.82-8.05,23.57.92,3.97,7.59,8.05,16.24,9.94,11.68,2.54,27.25,1.22,35.94-10.08,1.59-2.06,1.07-5.92-1.46-10.85-5.47-10.66-18.12-22.35-27.08-22.35Z"/>
        <path class="cls-23" d="M151.07,94.02c0,11.43-9.26,20.69-20.69,20.69s-20.69-9.26-20.69-20.69,9.26-20.69,20.69-20.69,20.69,9.26,20.69,20.69Z"/>
        <path class="cls-145" d="M130.38,117.12c-12.74,0-23.11-10.37-23.11-23.11s10.37-23.11,23.11-23.11,23.11,10.37,23.11,23.11-10.37,23.11-23.11,23.11ZM130.38,73.55c-11.28,0-20.46,9.18-20.46,20.46s9.18,20.46,20.46,20.46,20.46-9.18,20.46-20.46-9.18-20.46-20.46-20.46Z"/>
        <polygon class="cls-45" points="139.59 79.84 136.18 81.99 138.59 88.15 143.62 85.21 139.59 79.84"/>
      </g>
      <g>
        <path class="cls-43" d="M1304.4,42.13s8.89,12.05,25.17,15.29l-7.71,5.33-21.71-3.17,4.25-17.45Z"/>
        <path class="cls-43" d="M1351.06,118.05s-10.07,22.59-13.64,45.44l-8.46-22.72,5.05-25.55,17.05,2.83Z"/>
        <path class="cls-114" d="M1342.61,123.08s-4.56,3.08-4.75,14.32c-.19,11.23,0,19.04,0,19.04l-.63,10.34s-10.05-34.97,5.38-43.7Z"/>
        <path class="cls-69" d="M1329.57,57.42s-.01,0-.02.01c-.01,0-.02,0-.06.01-4.3.87-14.81,2.58-18.84-.41-4.76-3.54-6.08-13.39-6.24-14.74-.01-.1-.01-.16-.01-.16-8.6-3.22-17.91-4.98-27.64-4.98-43.59,0-78.91,35.33-78.91,78.91s35.33,78.91,78.91,78.91c24.28,0,45.99-10.96,60.46-28.21,0-.01-.01-.02-.01-.03-.65-1.53-1.14-3.76-1.47-6.39-.09-.62-.16-1.27-.22-1.94-1.07-11.45.46-28.59,4.3-32.82.72-.8,1.57-1.55,2.49-2.27.07-.07.15-.14.23-.19,2.68-2.08,5.92-3.82,8.51-5.05h.01c2.65-1.27,4.62-2,4.62-2,0-23.27-10.08-44.19-26.11-58.65ZM1241.42,141.37l-1.74,3.53s-.01.02-.01.02c-9.35-13.42-.32-32.89-.32-32.89.01.02.03.05.05.07.01.01.02.01.02.02,2.39,3.24,4.35,6.59,5.48,9.65.06.15.1.3.15.45.65,2.09.99,4.3.67,6.41-.82,3.4-2.38,8.07-4.31,12.74Z"/>
        <path class="cls-51" d="M1265.48,50.06c-2.17,7.54-15.01,29.72-26.65,32.95-13.32,3.69-20.94,3.63-22.37,0-.18-.48-.32-1.14-.38-1.97-.41-5.38,2.35-17.24,13.52-23.94,12.85-7.7,34.3-13.24,36.11-9.31.17.38.08,1.17-.23,2.26Z"/>
        <path class="cls-76" d="M1285.54,50.84c-.53,2.63-1.9,5.66-4.04,6.96-2.74,1.65-7.99,2.19-10.61,1.47-1.03-.3-1.66-.78-1.58-1.47,1.14-9.33,14.66-12.57,16-11.3.58.56.65,2.33.24,4.34Z"/>
        <path class="cls-96" d="M1257.5,97.79c-.39,3.62-2.1,10.28-9.14,9.52-1.25-.14-2.51-.49-3.76-1.03,0,0-.01,0-.02-.01-5.86-2.48-11.37-8.65-11.84-12.1,0,0,3.43-4.18,8.18-4.38.85-.03,1.93.08,3.14.31,5.55,1.1,13.74,4.71,13.44,7.69Z"/>
        <path class="cls-3" d="M1239.69,144.9l1.74-3.53c-.15.34-.3.7-.43,1.04-1.46,3.42-3.12,6.79-4.83,9.64h-.01c-2.73,4.56-5.63,7.8-8.17,7.8-6.47,0-18.66-6.09-23.23-17.05-4.57-10.97-5.99-37.39-2.86-41.22,3.37-4.11,10.09-7.04,18.28-5.71,2.65.43,6.52,2.96,10.47,6.54h.01c3.04,2.76,6.11,6.14,8.71,9.62,0,0-9.03,19.47.32,32.89,0,0,0-.01.01-.02Z"/>
        <path class="cls-42" d="M1245.73,128.63c.32-2.11-.02-4.32-.67-6.41.82,2.38,1.12,4.58.67,6.41Z"/>
        <path class="cls-105" d="M1323.95,142.81c-3.04,6.75-13.32,13.62-18.09,13.62s-12.85-2.07-13.33-5.9c-1.33-10.67,4-32.76,13.33-34.47,5.1-.94,10.52-1.07,14.81-.49,3.56.49,6.34,1.5,7.47,2.97,2.48,3.23-1.14,17.51-4.19,24.27Z"/>
        <path class="cls-18" d="M1305.72,179.87c-.72,2.11-13.14,5.76-22.28,5.19-9.14-.57-21.63-3.66-21.53-7.8.01-.49,1.22-1.28,3.19-2.14h0c5.19-2.26,15.64-5.03,23.22-4.18,7.06.79,12.85,3.63,15.64,6.04,1.34,1.15,1.99,2.21,1.76,2.89Z"/>
        <path class="cls-37" d="M1346.71,114.16c-1.69,1.31-5.72,1.85-8.59,1.07-.87-.24-1.62-.59-2.17-1.07-2.38-2.09-6.46-13.39-3.61-15.58,1.92-1.49,4.07-2.37,6.15-2.78,4.43-.89,8.5.3,9.08,2.18.86,2.75,1.34,14.46-.86,16.18Z"/>
        <path class="cls-13" d="M1304.4,42.13l2.87,3.21s1.74,8.51,6.97,10.93c5.23,2.43,9.83-.35,9.83-.35l5.5,1.5s-10.95,3.71-17.42,1.52c-6.47-2.19-7.75-16.81-7.75-16.81Z"/>
        <path class="cls-43" d="M1239.68,144.93l-3.52,7.13h-.01c-.42.31-10.59,7.44-20.11,0-9.71-7.6-15.72-42.95-9.29-49.13,6.43-6.18,16.33-6,16.33-6l7.56,5.48h.01c3.04,2.76,6.11,6.14,8.71,9.62,0,0-9.03,19.47.32,32.89Z"/>
        <path class="cls-43" d="M1245.73,128.63c.32-2.11-.02-4.32-.67-6.41.82,2.38,1.12,4.58.67,6.41Z"/>
        <path class="cls-43" d="M1265.48,50.06c-2.17,7.54-15.01,29.72-26.65,32.95-13.32,3.69-20.94,3.63-22.37,0-.18-.48-.32-1.14-.38-1.97,0,0,2.83-11.44,17.8-21.79,11.81-8.18,26.13-9.15,31.6-9.2Z"/>
        <path class="cls-43" d="M1257.5,97.79c-.39,3.62-2.1,10.28-9.14,9.52-1.25-.14-2.51-.49-3.76-1.03,0,0-.01,0-.02-.01-1.73-.94-3.2-1.76-3.66-2.04-1.31-.83-4.95-8.91-3.04-11.2.95-1.13,3.68-2.17,6.18-2.92,5.55,1.1,13.74,4.71,13.44,7.69Z"/>
        <path class="cls-43" d="M1285.54,50.84c-.53,2.63-1.9,5.66-4.04,6.96-2.74,1.65-7.99,2.19-10.61,1.47h0c2.33-8.64,14.66-8.43,14.66-8.43Z"/>
        <path class="cls-43" d="M1338.11,115.23c-.87-.24-1.62-.59-2.17-1.07-2.38-2.09-6.46-13.39-3.61-15.58,1.92-1.49,4.07-2.37,6.15-2.78,1.66.48,3.31,1.54,4.12,3.77,1.91,5.27,2.25,14.05-4.49,15.66Z"/>
        <path class="cls-43" d="M1321.66,139.36c-4.75,13.84-22.46,18.6-29.13,11.17-1.33-10.67,4-32.76,13.33-34.47,5.1-.94,10.52-1.07,14.81-.49l.07.02s5.69,9.92.93,23.76Z"/>
        <path class="cls-43" d="M1303.96,176.97c-2.63,2.11-8.5,5.22-20.12,4.79-17.42-.65-18.74-6.65-18.74-6.65h0c5.19-2.26,15.64-5.03,23.22-4.18,7.06.79,12.85,3.63,15.64,6.04Z"/>
        <path class="cls-43" d="M1244.91,121.78c-1.13-3.06-3.1-6.41-5.48-9.65.54.64,3.84,4.78,5.48,9.65Z"/>
        <path class="cls-43" d="M1245.73,128.63c-.77,5.14-3.21,10.67-4.74,13.78-.7,1.42-1.21,2.33-1.3,2.49l1.74-3.53c1.93-4.67,3.48-9.33,4.31-12.74Z"/>
        <g class="cls-130">
          <path class="cls-43" d="M1307.38,91.34c.11.66-.35,1.25-.39,1.9-.03.63.02,1.27.01,1.9-.01.75-.07.84.52,1.19.58.35.85.34,1.57.33,1.1-.02,2.13.73,3.26.4,1.05-.31,1.39-1.81,1.59-2.68.25-1.07.99-1.75,1.06-2.85.08-1.22-.48-1.86-1.52-2.49-1.08-.65-2.19-1.09-3.44-.48-1.13.55-1.9,1.81-2.67,2.78h0Z"/>
          <path class="cls-43" d="M1319.95,89.44c-.11-.02-.21-.04-.32-.07-.16-.44-.18-1.1.11-1.47.48-.62.59-.26,1.07-.08.97.37,1.43,1.14,1.44,2.19,0,.83-.65,2.04-1.69,1.69-.9-.3-1.38-1.45-1.37-2.26h.76Z"/>
          <path class="cls-43" d="M1278.85,115.38c-2.12.03-4.15,1.75-4.95,3.62-.25.59-.59,1.13-.82,1.75-.26.71-.36,1.52-.5,2.25-.07.34.03.69,0,1.03-.03.29-.17.54-.21.83-.08.64-.02,1.43.11,2.05.07.34.09.6.09.95,0,.37.12.61.18.96.1.61.17,1.2.4,1.8.17.46.38,1.03.69,1.41.29.36.63.83,1.02,1.12.91.65,2.17.71,3.25.71h3.05c.96,0,2.11.18,3.05,0,.95-.17,1.93-.56,2.76-1.07.79-.48,1.46-1.34,2.01-2.07.66-.88,1.27-1.7,1.85-2.63.57-.9.86-1.82,1.23-2.81.38-1.04.92-1.92.91-3.05,0-1.16.09-2.32-.23-3.43-.31-1.09-1.28-1.75-2.07-2.43-.92-.8-1.92-1.52-3.04-2.09-.32-.17-.58-.18-.91-.28-.1-.03-.08-.12-.22-.16-.16-.04-.34.05-.49.02-.26-.05-.38-.17-.65-.2-.27-.04-.59,0-.86,0-.3.01-.4.14-.65.2-.27.07-.59-.05-.87,0-.34.07-.5.17-.86.17-.32,0-.44.13-.68.17-.27.05-.59-.06-.85,0-.21.05-.43.22-.66.3-.54.17-.98.51-1.05.86Z"/>
          <path class="cls-43" d="M1272.76,108.33c-.42-.1-.34-.43-.42-.76-.09-.35-.22-.53-.11-.91.18-.59.69-.89,1.29-.81.55.08.9.4,1.28.81.48.51.84,1.14.98,1.78.27,1.19-.4,2.65-1.8,2.37-.53-.1-.84-.69-.95-1.15-.06-.25-.24-.5-.3-.75-.08-.33,0-.81,0-1.15v.57Z"/>
          <path class="cls-43" d="M1260.95,147.37c-.51.01-.77-.26-1.29-.15-.41.09-.79.36-1.18.58-1.08.59-1.8,1.53-1.49,2.81.19.78,1.05,1.51,1.66,2,.64.51,1.61,1.02,2.39,1.05.47.02,1.07.08,1.53-.02.49-.1.98-.36,1.42-.56.91-.4,1.72-.85,2.44-1.57.58-.58,1.28-1.22,1.38-2.04.13-.98-.17-1.91-.95-2.52-.99-.79-1.89-.91-3.15-.91-.3,0-.66-.05-.95.02-.29.06-.57.25-.86.32-.3.07-.5.07-.76.23-.16.1-.38.34-.57.38l.38.38Z"/>
          <path class="cls-43" d="M1289.67,107.53c-.65-.49-.38-.91.15-1.39.4-.36.65-.54,1.14-.76.5-.22,1.07-.26,1.52.1.38.3.75.69,1,1.09.18.28.12.44.18.76.07.4.27.53-.04.91-.34.43-.85.59-1.38.61-.65.02-1.06-.01-1.62-.29-.53-.26-.68-.54-.95-1.05h0Z"/>
          <path class="cls-43" d="M1294.9,66.39s.06,0,.08-.01c-.18.17-.12.83-.02,1.02.06.1.22.2.31.26.08.06.25.19.34.24.6.31,1.36.31,1.74-.27.35-.55.35-1.22-.13-1.7-.37-.36-1.57-.76-1.75.04l-.57.43Z"/>
          <path class="cls-43" d="M1306.61,65.68s-.08-.02-.12-.02c-.12-.41.03-.8.11-1.19.1-.49-.03-.79.58-.78.66,0,1.37.4,1.95.7.32.16.68.41.9.68.2.24.5.66.57.98.2.88-.19,1.74-.6,2.5-.38.72-.89,1.09-1.54,1.56-.59.44-1.3.91-2,1.01-.72.1-1.39-.19-1.9-.68-.52-.51-.48-1.3-.28-1.92.12-.37.17-.72.35-1.08.13-.26.26-.63.42-.86.44-.6,1.07-.85,1.68-1.17l-.14.29Z"/>
          <path class="cls-43" d="M1313.32,65.53c0-.08,0-.16,0-.24-.1.63.49.53.93.53.24,0,.44.02.64-.07.3-.12.29-.17.28-.5,0-.48-.25-.67-.71-.72-.34-.04-1.06,0-1.15.43v.57Z"/>
          <path class="cls-43" d="M1247.51,146.54c.05.28-.16.47-.25.71-.08.22-.12.46-.21.68-.2.51-.42,1.04-.54,1.6-.12.57-.24,1.2-.28,1.78-.04.53-.25,1.09-.15,1.64.09.51.26.88.69,1.18.42.29.78.54,1.32.53.47,0,.85,0,1.29-.17.5-.2.78-.56,1.11-.98.31-.38.42-.82.63-1.25.1-.2.28-.37.36-.6.09-.26.14-.53.24-.79.18-.46.44-.89.61-1.36.09-.23.14-.48.21-.71.09-.29.28-.57.36-.86.06-.22.14-.49.18-.71.02-.09-.03-.19-.02-.29.03-.16.13-.27.16-.43.04-.23-.06-.48-.01-.71.05-.26.15-.44.15-.71-.01-.83-.28-1.89-1.03-2.4-.48-.33-.83-.1-1.26.11-.45.23-.94.47-1.32.82-.38.35-.74.68-1.07,1.07-.15.18-.3.36-.43.56-.18.29-.17.6-.75,1.25Z"/>
          <path class="cls-43" d="M1245.65,162.25c-.27-.04-.53-.76-.58-.99-.05-.23.06-.49.01-.72-.05-.27-.15-.43-.15-.71,0-.46-.08-.99.03-1.43.08-.32.1-1.08.54-.97.4.09.62.65.75.97.09.22.22.48.26.72.02.09-.04.2-.02.29.03.11.12.12.14.22.09.39.03.99-.06,1.34-.07.28-.1.92-.5,1l-.43.29Z"/>
          <path class="cls-43" d="M1247.51,140.97c0-.08,0-.16,0-.24.03.17-.13.34-.15.52-.03.21-.05.51.14.65.37.28.86-.33,1.05-.61.09-.14.19-.31.25-.46.05-.12.18-.44.15-.58-.09-.46-.65-.56-1.01-.57l-.43,1.29Z"/>
          <path class="cls-43" d="M1265.18,140.85c-.14-.73.75-1.73,1.21-2.21.65-.68,1.23-1.45,1.99-2.01.12-.09.33-.04.44-.13.16-.12.24-.36.41-.45.17-.1.37.02.52-.05.16-.07.29-.24.44-.27.98-.17,1.81.09,2.68.26.47.09.9.2,1.37.36.16.05.29.18.48.22.22.05.43,0,.66.06.44.12.65.23,1.21.22.63-.01,1.1.26,1.71.29,1.71.09,3.63.21,4.8,1.72.52.66.78,1.74.93,2.56.16.93,0,2.17-.3,3.01-.48,1.37-1.33,2.63-2.49,3.63-.61.52-1.6.98-2.36,1.08-.19.02-.39-.04-.58-.01-.28.04-.43.19-.63.23-.39.08-.96.17-1.36.08-1.81-.39-3.19-1.24-4.79-2.09-.71-.38-1.41-.92-2.13-1.28-.8-.4-1.49-.63-2.14-1.28-1.08-1.08-2.5-3.1-2.02-4.74.08-.02.16-.03-.05.81Z"/>
          <path class="cls-43" d="M1306.59,166.56c-.75-.09.27-1.19.56-1.37.72-.46,1.21-.24,1.73.29.96.98,1.5,2.16,1.43,3.51-.04.72-.35,1.16-1.15,1.3-.81.14-1.12-.22-1.71-.58-.4-.25-1.27-.43-1.45-.84-.31-.72.47-1.44.31-2.02l.29-.29Z"/>
          <path class="cls-43" d="M1326.3,156.28c.06-.06.12-.12.18-.17-.55.23-.87.79-1.31,1.17-.74.64-1.51,1.28-2.12,2.03-1.06,1.29-2.17,2.9-2.61,4.55-.41,1.55-.14,3.36.64,4.73.91,1.59,2.17,1.77,3.79,2.21.7.19,1.29-.1,1.94-.28.66-.19,1.36-.57,2.06-.87,1.36-.59,2.65-1.27,3.43-2.63.75-1.32.87-2.82.85-4.43,0-.82.3-1.48.28-2.29-.01-.94.02-1.69-.29-2.58-.47-1.32-1.09-2.85-2.85-2.86-.88,0-1.64.69-2.35,1.08-.78.42-1.87.89-1.65.36Z"/>
          <path class="cls-43" d="M1326.02,148.85c-.08-.02-.17-.04-.25-.06.38-.85.97-1.9,1.75-2.51.5-.4,1.08-.46,1.31.28.15.5.32,1.07.35,1.57.05.93.19,2.74-1.15,2.73-.71,0-1.92-1.27-1.71-2.01h-.29Z"/>
          <path class="cls-43" d="M1245.47,173.41c-.83-.13-1.24-.54-1.99.06-.73.59-1.09,1.4-1.51,2.23-.36.71-.74,1.49-.79,2.28-.05.87.13,1.22.79,1.78,1.14.98,2.96,1.7,4.36,2.21,1.41.51,2.83,1.52,4.28,1.72,1.41.2,2.06-1.12,2.79-2.06.46-.59.85-1.27,1.29-1.88.19-.27.36-.6.56-.86.07-.09.23-.16.29-.26.11-.17.16-.44.27-.59.39-.53.71-.81.8-1.49.1-.75.04-1.55-.26-2.18-.61-1.3-2-2.19-3.32-2.64-1.88-.64-3.51-.69-5.43-.3-.86.18-1.66.52-2.43.9-.61.3-1.09,1.23.29,1.08Z"/>
          <path class="cls-43" d="M1235.47,174.84c-.79-.1.02-1.43.34-1.72.6-.54,1.16-.24,1.59.35.42.58.56,1.31-.15,1.73-.86.51-.78-.24-1.5-.37h-.29Z"/>
          <path class="cls-43" d="M1330.02,67.45c-.08.02-.15.04-.23.06-.04.57-.55,1.07-.64,1.66-.1.65-.28,1.34-.27,2,.02,1.3.18,2.4,1.42,3.07.52.28,1.05.46,1.57.68.65.27,1.22.14,1.87.31,1.05.27,2.71.29,3.12-1.09.15-.51.02-1.28.02-1.83,0-.64.1-1.38-.06-2-.28-1.07-.48-1.96-1-2.92-.46-.86-1.22-1.6-2.14-1.87-.9-.27-2.56-.09-2.79,1.08l-.86.86Z"/>
        </g>
        <path class="cls-45" d="M1260.59,86.42c-.21-.06-.42.39-.5.55-.13.25-.18.52-.26.79-.04.12-.08.14-.1.28-.01.11-.01.27,0,.39.03.25.16.39.34.57.7.71,1.98.36,2.76-.01.9-.43,1.85-1.07,2.17-2.08.14-.44-.07-.95-.46-1.24-.19-.14-.39-.21-.59-.31-.09-.05-.2-.12-.31-.15-.08-.02-.12,0-.19-.02-.08-.01-.15-.06-.21-.07-.63-.13-1.31.09-1.86.39-.31.17-1.16.58-1.18,1-.03,0-.05.01.4-.08Z"/>
      </g>
      <g>
        <path class="cls-35" d="M218.8,151.06s-7.65,7.18-12.39,24.01l2.75,6.19h14.74l29.4-2.23-26.24-30.87-8.26,2.9Z"/>
        <path class="cls-92" d="M302.83,171.9s-6.94-33.94-32.33-45.97c0,0-13.05-4.79-34.46-1.94,0,0-9.48,8.57-15.91,22.43l3.77,32.6h29.4l49.53-7.13Z"/>
        <path class="cls-58" d="M292.23,153.29c-3.4,1.98-25.41,2.42-34.85-.01-1.8-.47-3.14-1.03-3.81-1.71-4.18-4.24-12.82-24.85-11.11-25.43,5.84-1.99,21.5-1.48,29.57,1.3,9.56,3.29,24.23,23.5,20.19,25.85Z"/>
        <path class="cls-2" d="M236.04,124s12.6,14.43,17.26,47.24l49.53.67-49.53,7.13h-29.4l-3.77-32.6s7.65-15.19,15.91-22.43Z"/>
        <polygon class="cls-65" points="253.3 171.24 223.9 179.03 253.3 179.03 302.83 171.9 253.3 171.24"/>
        <path class="cls-50" d="M220.59,150.43l-1.79.63s-8.46,9.42-12.39,24.01l2.75,6.19h14.74l29.4-2.23h-29.4l-3.31-28.6Z"/>
        <polygon class="cls-50" points="218.8 151.06 222.68 179.03 209.16 181.26 223.9 181.26 253.3 179.03 223.9 179.03 220.59 150.43 218.8 151.06"/>
        <path class="cls-50" d="M220.13,146.43s2.27-5.91,9.73-5.15c7.45.76,11.1,33.23,11.1,33.23l-17.05,4.52-3.77-32.6Z"/>
        <path class="cls-22" d="M232.09,142.51l8.86-11.01s2.45,4.38,4.05,8.43l-11.27,4.84-1.64-2.26Z"/>
        <path class="cls-22" d="M235,147.41l11.51-3.67s2.47,6.67,3.67,11.73l-11.91,3.05s-1.84-7.89-3.28-11.11Z"/>
        <path class="cls-152" d="M240.88,174.52c-.04-.27-3.88-26.69-8.49-31.47-1.38-1.43-3.15-2.03-5.14-1.72-3.17.48-6.01,3.01-7.07,5.14l-.12-.06c1.08-2.16,3.96-4.72,7.17-5.21,2.03-.31,3.85.3,5.26,1.76,4.64,4.82,8.49,31.28,8.52,31.55l-.14.02Z"/>
        <path class="cls-110" d="M235,165.85l-.69-7.33s-22.03-.38-55.88,17.99l-.63,2.69.78,2.07s23.88-5.63,44.51-8.22l11.91-7.2Z"/>
        <path class="cls-7" d="M299.13,160.12s21.88,2.79,37.25,8.31l-.61,2.98c-13.08-1.6-23.73-2.22-33.74-2.68l-2.9-8.61Z"/>
        <path class="cls-50" d="M178.42,176.5l1.53,1.27s32.24-11.98,55.05-11.92l-11.91,7.2s-16.19,1.89-44.51,8.22l-.78-2.07.63-2.69Z"/>
        <path class="cls-65" d="M335.77,171.41s-10-2.46-34.67-5.56l.94,2.89c10.34.46,20.7,1.11,33.74,2.68Z"/>
        <path class="cls-65" d="M235,165.85l-11.1,13.19-14.74,2.23-2.52-5.65-28.08,5.65,1.38-3.49s26.73-10.15,55.05-11.92Z"/>
        <path class="cls-50" d="M260.62,170.28s1.72-4.59,4.04-6.47c2.32-1.88,25.72-2.47,28.25-2.25s7.37,9.16,7.37,9.16l-39.66-.44Z"/>
        <path class="cls-119" d="M260.62,170.28l37.18.44s-3.59-6.27-6.73-7.27c-3.14-.99-26.29.21-27.3,1.25-1.01,1.05-3.15,5.57-3.15,5.57Z"/>
        <polygon class="cls-152" points="279.26 163.14 279.17 163.04 280.38 161.79 277.99 154.95 278.11 154.9 280.53 161.83 280.5 161.86 279.26 163.14"/>
        <polygon class="cls-152" points="310.82 169.25 310.81 169.11 319.64 168.39 319.79 163.82 319.93 163.82 319.77 168.52 319.71 168.52 310.82 169.25"/>
        <polygon class="cls-152" points="205.93 170.22 204.53 164.82 204.66 164.78 206.06 170.19 205.93 170.22"/>
        <path class="cls-121" d="M197.42,167.5l2.85,1.13,10.86-2.86,3.12-3.96s-10.7,3.08-16.84,5.69Z"/>
        <path class="cls-20" d="M312.05,162.22l1.87,2.49,10.59,1.79,2.71-.89s-8.52-2.23-15.17-3.39Z"/>
        <path class="cls-70" d="M272.03,127.44s-11.83,7.86-14.65,25.84c-1.8-.47-3.14-1.03-3.81-1.71-4.18-4.24-12.82-24.85-11.11-25.43,5.84-1.99,21.5-1.48,29.57,1.3Z"/>
        <path class="cls-83" d="M263.94,127.46s10.36,4.47,19.9,15.56l5.19.21s-5.84-11-15.75-15.31c0,0-4.09-1.3-9.34-.46Z"/>
        <path class="cls-83" d="M262.17,127.46s7.88,2.6,19.85,15.77l-10.77.5s-6.99-12.23-18.58-15.91c0,0,4.06-.37,9.49-.37Z"/>
        <circle class="cls-135" cx="296.02" cy="157.24" r="9.4"/>
        <circle class="cls-138" cx="255.59" cy="159.64" r="9.4" transform="translate(-38.02 227.49) rotate(-45)"/>
        <path class="cls-29" d="M232.01,142.91s4.67,4.26,6.88,22.69c0,0-1.83-15.17-6.88-22.69Z"/>
        <path class="cls-45" d="M250.39,156.29s8.65,1.85,10.23,3.31c1.59,1.46-8.88,2.62-8.88,2.62,0,0-.64-2.97-1.35-5.93Z"/>
        <path class="cls-45" d="M297.22,155.63s-4.15,1.94-4.31,2.88c-.17.94,6.22,1.61,6.22,1.61,0,0-1.13-2.83-1.91-4.49Z"/>
      </g>
      <g>
        <circle class="cls-140" cx="531.74" cy="110.85" r="83.27" transform="translate(77.36 408.46) rotate(-45)"/>
        <circle class="cls-134" cx="531.74" cy="110.85" r="71.61" transform="translate(345.37 621.04) rotate(-81.71)"/>
        <g>
          <path class="cls-26" d="M571.57,67.55c-2.83-6.85-1.99-14.65-1.99-14.65,0,0-6.61-3.84-19.25-5.21-1.82-.2-3.79-.54-5.96-.68-18.83-1.24-20.06-.14-20.06-.14l-4.41,5.33,22.18,6.59,29.5,8.77Z"/>
          <path class="cls-86" d="M546.32,82.16c10.75-.28,19.19-10.73,18.86-23.33-.33-12.6-9.31-22.59-20.06-22.31-10.75.28-19.19,10.73-18.86,23.33.33,12.6,9.31,22.59,20.06,22.31Z"/>
          <path class="cls-71" d="M571.57,67.55c-2.83-6.85-1.99-14.65-1.99-14.65,0,0-6.61-3.84-19.25-5.21-1.74,4.33-3.3,9.85-8.25,11.1l29.5,8.77Z"/>
        </g>
        <circle class="cls-154" cx="531.74" cy="110.85" r="61.14"/>
        <path class="cls-118" d="M575.94,131.46c-12.13,10.32-22.94,10.62-22.94,10.62,0,0-11.79.63-23.66-1.06-11.88-1.68-9.86-20.85-9.86-20.85l1.42-19.2,24.84-7.75,34.66-3,6.21,10.79c0,19.4-10.66,30.45-10.66,30.45Z"/>
        <path class="cls-99" d="M566.76,60.72c-.11.02-3.88.61-5.31,0-1.46-.62-8.45-3.48-8.45-3.48,0,0-7.16.48-9.96,0-2.8-.48-5.74-1.36-5.74-1.36,0,0-1.66-.96-5.04-.83-2.29.09-5.16-1.02-5.16-1.02,0,0-4.54-.15-7.38,1.4-5.67,3.09-6.8,2.68-6.92,2.64-.25,2.29-2.23,3.04-4.92,3.73-2.43.63-4.36.82-4.36.82,0,0,0,3.43-1.96,2.33-2.23-1.24-2.7.58-2.7.58,0,0-11.94,15.2-12.3,11.66-.13-1.26-7.2,9.29-7.2,9.29,0,0,.7,2.03-1,4.71-1.7,2.67-4.2,7.46-4.2,7.46,0,0,4.49-.54,4.95,1.29.41,1.63-6.74,14.14-8.25,16.77-.19-1.93-.28-3.88-.28-5.86,0-33.77,27.37-61.14,61.14-61.14,13.03,0,25.1,4.08,35.02,11.02Z"/>
        <path class="cls-44" d="M472.58,112.58c0,17.88,7.68,33.97,19.91,45.15-13.38-11.22-21.89-28.05-21.89-46.88,0-33.77,27.37-61.14,61.14-61.14,15.87,0,30.33,6.05,41.19,15.96-10.61-8.88-24.29-14.23-39.21-14.23-33.77,0-61.14,27.37-61.14,61.14Z"/>
        <path class="cls-27" d="M490.12,95.2c11.63,1.22,17.33-3.37,35.36-15.15,20.78-13.58,33.06-9.95,55.24,2.49,0,0-16.1-34.2-45.89-32.76-59.34,2.86-60.14,43.81-44.71,45.42Z"/>
        <g class="cls-132">
          <path class="cls-72" d="M491.85,83.68c-6.76.72-13.6,9.1-15.18,13.83-1.58,4.74-2.06,17-.85,21.74,1.21,4.74,6.32,11.7,9.84,9.31,3.52-2.39,5.95-3.97,8.74-6.03,2.79-2.06,3.28-7.77,5.34-11.05,2.06-3.28,5.1-10.45,3.16-13.72-1.94-3.28-7.53-11.14-8.26-12.37-.73-1.23-1.35-1.86-2.79-1.7Z"/>
          <path class="cls-72" d="M486.75,73.22c-2.88,4.87-2.67,7.89,1.58,7.89s17-7.17,17-9.72-4.49-5.34-7.53-5.34-9.64,4.78-11.05,7.17Z"/>
          <path class="cls-72" d="M502.05,161.09c.54,2.77,6.44,5.9,8.2,5.9s16.7.85,17.31-1.09c.61-1.94-3.89-10.69-8.02-11.3s-6.44,3.16-10.45,3.64c-4.01.49-7.37,1.15-7.04,2.85Z"/>
          <path class="cls-72" d="M531.08,164.31c1.65,2.36,5.1,6.19,12.02,4.49,6.92-1.7,18.58-10.81,18.34-14.82-.24-4.01-13.36-16.52-17.73-16.52s-17.49,19.92-12.63,26.84Z"/>
          <path class="cls-72" d="M520.64,151.62c-2.06,3.47,5.1,5.89,6.32,5.04,1.21-.85,4.37-7.35,4.01-8.59-.36-1.25-8.99,1.31-10.32,3.55Z"/>
          <path class="cls-72" d="M502.23,109.41c-2.56,6.21-4.31,10.93-2.12,12.15,2.19,1.21,6.68-.85,8.14-3.04,1.46-2.19,3.52-4.75,1.46-6.32-2.06-1.57-6.44-5.29-7.47-2.79Z"/>
          <path class="cls-72" d="M507.15,57.25c-3.94,4.87-2.73,4.31-.91,8.81,1.82,4.49,1.09,7.68,3.46,8.41s10.1-3.83,19.53-4.74c9.44-.91,25.19-7.29,22.19-9.84-3.01-2.55-9.47-4.34-13.12-5.86-3.64-1.52-6.47-1.15-11.02-.88-4.55.27-5.28-.34-11.3.88s-7.15,1.13-8.84,3.22Z"/>
          <path class="cls-72" d="M506.06,79.48c3.58,1.93,14.12,2,14.76-2.28s-2.91-1.41-5.01-1.41c-3.26,0-5.19.73-6.74,1.16s-4.66,1.64-3.01,2.53Z"/>
          <path class="cls-72" d="M558.99,63.08c-5.15,2.17-8.54,2.82-7.19,6.65,1.36,3.83,1.77,4.74,5.82,7.47,4.05,2.73,11.02,4.74,12.84,1.46s4.74-6.47,1.64-8.84c-3.1-2.37-6.92-1.91-8.29-4.55-1.37-2.64-1.27-3.69-4.83-2.19Z"/>
          <path class="cls-72" d="M586.04,112.63c-9.25,1.58-16.61,1.64-16.46,10.93.15,9.29,4.09,15.76,5.86,17.49,1.77,1.73,6.59.3,8.32-3.58,1.73-3.89,4.85-8.08,5.02-13.27.17-5.19,1.54-12.3-2.75-11.57Z"/>
          <path class="cls-72" d="M480.65,127.69c-4.05,4.47,1,9.26,3.46,14.36,2.46,5.1,6.29,12.02,10.2,13.12,3.92,1.09,11.3.69,11.66-2.89.36-3.58-5.79-7.57-6.67-10.59-.89-3.02,1.03-4.77-.61-8.4-1.64-3.63.12-3.92-4.01-4.73-4.13-.81-2.49-.82-6.8-1.5-4.31-.68-5.34-1.45-7.23.62Z"/>
          <path class="cls-72" d="M502.6,136.86c-1.84,4.23-.52,6.29,2.25,6.1,2.76-.18,5.04-.9,3.49-3.05-1.55-2.15-4.83-5.15-5.74-3.06Z"/>
          <path class="cls-72" d="M508.84,152.8c.13,2.87,3.96,2.82,2.96,0-1-2.82-3-1-2.96,0Z"/>
          <path class="cls-72" d="M497.22,83.21c-1.02,2.04.27,6.01,2.46,4.74,2.19-1.28,3.28-2.98,2.37-4.27-.91-1.29-4.01-2.11-4.83-.47Z"/>
          <path class="cls-72" d="M480.83,85.24c-.73,1.79.27,2.61,1.28,1.34,1-1.28-.55-3.13-1.28-1.34Z"/>
          <path class="cls-72" d="M524.01,74.05c-1.53.59,2,3.69,3.1,1.32,1.09-2.37-.64-2.28-3.1-1.32Z"/>
          <path class="cls-72" d="M523.63,145.72c-.91,2.74,3.69,1.2,3.81,0,.12-1.2-2.88-2.81-3.81,0Z"/>
          <path class="cls-72" d="M499.62,130.12c-1.94,2.89,5.1,5.04,5.22,2.37.12-2.67-3.84-4.43-5.22-2.37Z"/>
          <path class="cls-72" d="M542.44,68c-2.47,2.57,5.53,7.24,5.65,3.37.12-3.86-4.25-4.83-5.65-3.37Z"/>
          <path class="cls-72" d="M553.79,58.04c-1.53,1.2-.73,3.94,1.46,3.3,2.19-.63,3.77.24,3.16-1.59-.61-1.83-2.25-3.56-4.62-1.71Z"/>
        </g>
        <g class="cls-142">
          <path class="cls-67" d="M475.19,90.12c-.48,1.64,2.47,1.21,2.47,0,0-1.21-2.15-1.09-2.47,0Z"/>
          <path class="cls-67" d="M498.17,62.39c-1.56,1.58.48,2.69,1.46.63.97-2.06.61-2.72-1.46-.63Z"/>
          <path class="cls-67" d="M529.94,143.84c-1.18,1.89,3.67,3.69,3.78,1.73.11-1.96-2.57-3.68-3.78-1.73Z"/>
          <path class="cls-67" d="M511.26,145.72c1.47,3.25,6.46,5.06,8.04-.01,1.58-5.07.85-9.04-2.19-9.55-3.04-.51-6.85,7.36-5.85,9.56Z"/>
        </g>
        <g>
          <path class="cls-8" d="M532.02,137.69c17.09,6.45,47.76-11.86,53.98-31.68,2.75-8.77-4.2-17.11-15.66-24.99-12.13-8.34-29.04-9.33-40.29-2.17-8.46,5.38-21.02,50.16,1.98,58.84Z"/>
          <path class="cls-41" d="M526.76,124.95c7.96,10.51,26.66,10.52,38.79,3.25,12.27-7.36,20.27-24.15,10.46-36.9-14.48-18.84-40.1-13.09-44.89-8.41-10.43,10.21-13.01,30.63-4.36,42.06Z"/>
          <path class="cls-57" d="M574.56,110.82c-4.61,15.04-23.98,20.19-34.24,14.77-12.95-6.84-12.63-17.03-11.51-23.54,1.5-8.72,9.61-21.43,26.72-19.7,12.8,1.29,23.03,15.42,19.03,28.47Z"/>
          <path class="cls-34" d="M570.46,106.81c.26,14.71-18.07,18.22-23.65,17.24-11.94-2.09-18.04-9.24-17.55-19.78.3-6.52,5.44-18.11,19.56-19.49,8.95-.88,21.38,7.83,21.63,22.03Z"/>
          <ellipse class="cls-139" cx="558.34" cy="113.86" rx="21.17" ry="28.74" transform="translate(59.38 389.09) rotate(-40.41)"/>
        </g>
        <path class="cls-32" d="M532.67,77.37c-5.22,2.93,2.04,3.37,2.04,3.37,0,0,4.95-1.92,10.32-2.35,0,0-9.86-.11-4.37-3.55,0,0-5.36,1.06-7.99,2.53Z"/>
        <path class="cls-60" d="M471.64,106.99c18.38,10.47,31.23,46.55,28.5,53.86,0,0-1.57,2.59-9.94-5.14,0,0-6.01-6.08-9.62-13.21l-8.94-35.51Z"/>
        <g>
          <path class="cls-11" d="M463.36,111.25c-.8,6.99,9.09,36.7,13.35,42.21,0,0-.98-9.68-5.5-24.05-4.52-14.37-7.85-18.16-7.85-18.16Z"/>
          <path class="cls-57" d="M464.74,116.4c-.03.19,3.01,15.8,10.09,32.25,0,0-.71-5.99-4.25-17.76-3.54-11.78-5.84-14.49-5.84-14.49Z"/>
          <g class="cls-148">
            <path class="cls-56" d="M504.24,127.75c1.58,10.63-7.24,20.76-19.71,22.61-12.47,1.86-23.86-5.26-25.45-15.89-1.58-10.63,7.24-20.76,19.71-22.61s23.86,5.26,25.45,15.89Z"/>
          </g>
          <path class="cls-21" d="M491.76,153.53c-7.2-.86-15.06-.07-15.06-.07,0,0-.88-4.61-4.42-16.82-.51-1.76-1.08-3.67-1.7-5.75-4.98-16.55-7.22-19.63-7.22-19.63l7.24-4.8s2.47.26,11.83,11.83c2.72,3.36,7.5,9.86,9.42,18.11,2.44,10.46.22,17.18-.09,17.14Z"/>
          <path class="cls-31" d="M490.02,153.37c-6.69-.54-13.31.09-13.31.09,0,0-.88-4.61-4.42-16.82,7.16.83,20.27,2.93,20.27,2.93,3.78,5.78,4.38,15.26,1.34,16.14-1.59.47-3.88-2.34-3.88-2.34Z"/>
        </g>
        <path class="cls-45" d="M508.25,59.34c-9.68,3.67-14.01,12.28-12.47,13.5s23.89-9.51,22.19-11.74-5.47-3.38-9.72-1.77Z"/>
        <path class="cls-45" d="M490.27,78.25c-1.17,2.31,4.69-1,5.5-1.8.81-.8-3.68-1.79-5.5,1.8Z"/>
        <g>
          <path class="cls-5" d="M520.63,107.95c1.35-1.34,2.27,1.6,2.27,1.6l-1.78-.1-.49-1.49Z"/>
          <path class="cls-5" d="M533.27,132.9c1.88.74,1.75,3.49,1.75,3.49,0,0-3.24-1.14-2.5-2.31l.75-1.18Z"/>
          <path class="cls-5" d="M570.1,148.64c.87-.88,1.65,1.1.88,1.1-.77,0-.88-1.1-.88-1.1Z"/>
          <path class="cls-5" d="M584.65,145.57c3.73-.65,3.94,3.65,3.94,3.65,0,0-.05,1.55-1.38.96-1.33-.59-3.76-2.6-3.76-2.6,0,0,.02-1.81,1.2-2.01Z"/>
          <path class="cls-5" d="M564.88,135.93c.71,2.11,2.81,1.6,3.6,1.11.78-.49-1.73-2.4-1.73-2.4,0,0-2.16.42-1.87,1.28Z"/>
          <path class="cls-5" d="M595.94,116.17c-1.19.66-1.11,1.73-.06,2.15,1.05.42.94.43,2.51-.32,1.57-.75.06-1.53.06-1.53l-2.51-.31Z"/>
          <path class="cls-5" d="M578.61,95.39c-.66.6-.36,3.96.77,3.8s3.26-1.38,3.75-2.14c.49-.77-4.52-1.66-4.52-1.66Z"/>
        </g>
        <g>
          <path class="cls-5" d="M550.81,39.24c-.75-.42.4-1.18.4-1.18l.18.78-.58.4Z"/>
          <path class="cls-5" d="M460.13,124.7c.08-.9,1.29-1.2,1.29-1.2,0,0-.08,1.54-.68,1.37l-.6-.17Z"/>
          <path class="cls-5" d="M469.68,145.2c-.49-.26.27-.85.36-.52.1.33-.36.52-.36.52Z"/>
          <path class="cls-5" d="M541.76,43.74c-.75-1.53,1.08-2.16,1.08-2.16,0,0,.68-.17.59.48-.09.65-.65,1.95-.65,1.95,0,0-.78.22-1.02-.27Z"/>
          <path class="cls-5" d="M453.63,148.59c.82-.57.34-1.42.03-1.69-.31-.28-.82,1.05-.82,1.05,0,0,.45.88.79.64Z"/>
          <path class="cls-5" d="M534.64,42.19c.43.43.89.26.94-.25.05-.51.07-.46-.45-1.05-.52-.58-.67.17-.67.17l.18,1.12Z"/>
          <path class="cls-5" d="M467.95,131.06c.34.21,1.76-.34,1.55-.81-.21-.47-1-1.23-1.4-1.35-.39-.11-.15,2.16-.15,2.16Z"/>
        </g>
        <path class="cls-66" d="M602.24,147.89c.29,8.62-6.47,15.85-15.11,16.14-8.63.29-15.87-6.46-16.15-15.09-.29-8.62,6.47-15.85,15.11-16.14,8.63-.29,15.87,6.46,16.15,15.09Z"/>
        <ellipse class="cls-136" cx="503.53" cy="72.94" rx="30.63" ry="19.43" transform="translate(51.72 306.89) rotate(-35.62)"/>
      </g>
      <g>
        <ellipse class="cls-129" cx="949.03" cy="115.02" rx="118.6" ry="108.23"/>
        <path class="cls-102" d="M953.73,126.38h1.52l-1.52-9.96s-.39-.95-1-2.42c-.3-.74-.66-1.6-1.1-2.47-7.6-4.81-8.26-12.93-9.99-20.47,0,.99,0,1.98-.07,3.03-.03.93-.06,2.04-.09,3.27-.25,8.58-.65,22.88-.65,22.88l4.79,2.09s-.84-8.47-1.6-16.09c-.07-.69-.14-1.38-.23-2.04-.83-3.23-.73-5.51-.95-8.88.11,5.48,2.94,10.41,6.2,15.62.26.65.53,1.3.79,1.95,1.83,4.49,3.45,8.48,3.45,8.48l.46,5Z"/>
        <g>
          <polygon class="cls-55" points="866.31 105.14 871.72 116.91 883.95 116.91 889.99 105.14 890.84 88.19 873.69 91.97 866.31 105.14"/>
          <polygon class="cls-100" points="890.84 88.19 883.78 101.29 883.95 116.91 889.99 105.14 890.84 88.19"/>
          <polygon class="cls-90" points="883.78 101.29 866.31 105.14 873.69 91.97 890.84 88.19 883.78 101.29"/>
        </g>
        <g>
          <polygon class="cls-80" points="821.27 91.97 842.97 116.91 854.01 119.47 860.02 97.64 858.7 76.17 844.48 72.75 821.27 91.97"/>
          <polygon class="cls-30" points="858.7 76.17 847.32 97.17 854.01 119.47 860.02 97.64 858.7 76.17"/>
          <polygon class="cls-104" points="821.27 91.97 847.32 97.17 858.7 76.17 844.48 72.75 821.27 91.97"/>
        </g>
        <g>
          <polygon class="cls-74" points="855.81 20.12 874.16 44.39 891.24 48.84 905.41 41.42 911.35 1.96 892.87 0 855.81 20.12"/>
          <polygon class="cls-9" points="872.64 23.44 883.74 41.94 905.41 41.42 911.35 1.96 872.64 23.44"/>
          <polygon class="cls-49" points="905.41 41.42 883.74 41.94 874.16 44.39 891.24 48.84 905.41 41.42"/>
          <path class="cls-101" d="M855.81,20.12s15.73,3.94,16.84,3.32c1.11-.62,38.71-21.48,38.71-21.48l-18.48-1.96-37.06,20.12Z"/>
        </g>
        <g>
          <polygon class="cls-122" points="997.79 9.67 1032.36 9.67 1046.62 20.12 1038.33 39.11 1010.9 50.92 992.39 52.74 997.79 9.67"/>
          <polygon class="cls-62" points="997.79 9.67 1011.81 22.62 1006.52 41.94 992.39 52.74 997.79 9.67"/>
          <polygon class="cls-75" points="1038.33 39.11 1006.52 41.94 992.39 52.74 1010.9 50.92 1038.33 39.11"/>
          <polygon class="cls-25" points="997.79 9.67 1011.81 22.62 1046.62 20.12 1032.36 9.67 997.79 9.67"/>
        </g>
        <g>
          <polygon class="cls-124" points="820.45 138.46 852.36 141.2 862.93 137.28 838.61 134.79 820.45 138.46"/>
          <polygon class="cls-89" points="858.38 168.34 864.29 167.13 873.82 169.02 873.81 170.32 868.17 173.61 858.38 168.34"/>
          <polygon class="cls-48" points="883.67 185.4 888.91 190.76 912.25 191.84 913.44 187.47 883.67 185.4"/>
          <polygon class="cls-4" points="873.83 168.52 919.02 182.52 935.06 170.99 931.38 165.56 908.73 164.08 901.16 164.24 873.83 168.52"/>
          <polygon class="cls-24" points="936.16 159.01 965.03 156.31 971.06 157.13 994.45 163.28 950.24 167.13 936.16 159.01"/>
          <polygon class="cls-87" points="904.75 148.55 956.34 147.59 967.72 139.63 961.1 139.63 928.91 139.05 922.91 139.05 904.75 148.55"/>
          <polygon class="cls-28" points="953.17 126.38 935.69 128.12 944.4 131.37 967.21 130.98 959.27 128.12 953.17 126.38"/>
          <polygon class="cls-39" points="926.33 118.84 944.2 122.52 953.27 121.38 935.52 116.91 926.33 118.84"/>
          <polygon class="cls-117" points="925.31 195.22 942.75 198.53 979.49 188.65 949.72 187.78 944.25 189.67 925.31 195.22"/>
          <polygon class="cls-93" points="1028.63 151.35 1011.11 157.39 1037.03 158.29 1048.31 151.35 1028.63 151.35"/>
          <polygon class="cls-63" points="971.68 147.13 992.53 151.35 1032.18 143.99 1007.22 142.55 971.68 147.13"/>
          <polygon class="cls-85" points="949.31 206.72 963.31 204.44 962.21 211.28 946.62 218.89 921.46 215.64 949.31 206.72"/>
          <polygon class="cls-17" points="852.36 141.2 853.17 152.99 829.72 152.99 820.45 138.46 852.36 141.2"/>
          <polygon class="cls-73" points="842.84 161.51 849.63 185.18 838.15 181.31 824.71 154.94 842.84 161.51"/>
          <polygon class="cls-128" points="868.17 173.61 869.7 182.53 874.53 180.85 873.81 170.32 868.17 173.61"/>
          <polygon class="cls-54" points="956.34 147.59 955.26 157.22 965.03 156.31 967.72 139.63 956.34 147.59"/>
          <polygon class="cls-91" points="935.69 128.12 935.86 139.17 943.11 139.31 944.4 131.37 935.69 128.12"/>
          <polygon class="cls-33" points="944.2 122.52 944.19 127.27 953.17 126.38 953.27 121.38 944.2 122.52"/>
          <polygon class="cls-10" points="883.67 185.4 882.97 198.84 883.49 202.4 894.26 209.97 888.91 190.76 883.67 185.4"/>
          <polygon class="cls-123" points="981.63 175.12 985.45 189.44 986.96 196.59 996.26 199.74 997.51 180.24 981.63 175.12"/>
          <polygon class="cls-103" points="1011.11 157.39 1011.99 166.08 1018.81 167.48 1031.66 168.52 1037.03 158.29 1011.11 157.39"/>
          <polygon class="cls-46" points="946.62 218.89 944.12 242.02 930.14 238.02 921.46 215.64 946.62 218.89"/>
          <polygon class="cls-125" points="942.75 198.53 942.76 208.82 930.66 212.69 925.31 195.22 942.75 198.53"/>
          <polygon class="cls-81" points="858.38 168.34 852.05 183.82 861.76 178.37 869.7 182.53 874.53 180.85 873.81 170.32 868.17 173.61 858.38 168.34"/>
          <polygon class="cls-15" points="919.02 182.52 909.28 203.28 912.25 191.84 913.44 187.47 883.67 185.4 888.91 190.76 894.26 209.97 883.49 202.4 882.97 198.84 875.29 194.07 873.83 168.52 919.02 182.52"/>
          <polygon class="cls-64" points="842.84 161.51 871.49 155.49 868.77 168.02 864.29 167.13 858.38 168.34 861.76 178.37 849.63 185.18 838.15 181.31 824.71 154.94 842.84 161.51"/>
          <polygon class="cls-95" points="862.39 150.51 853.17 152.99 827.37 155.91 824.71 154.94 829.72 152.99 820.45 138.46 852.36 141.2 862.93 137.28 862.39 150.51"/>
          <polygon class="cls-16" points="935.06 170.99 929.86 180.34 937.36 180.58 936.16 159.01 939.67 161.03 959.84 161.03 971.06 157.13 965.03 156.31 967.72 139.63 956.34 147.59 904.75 148.55 908.73 164.08 901.16 164.24 881.16 167.37 916.42 171.13 933.26 168.34 935.06 170.99"/>
          <polygon class="cls-52" points="950.24 167.13 949.72 187.78 942.25 190.26 971.28 190.86 979.49 188.65 976.18 192.47 982.97 191.77 985.45 189.44 981.63 175.12 993.48 171.74 994.45 163.28 950.24 167.13"/>
          <polygon class="cls-126" points="981.63 175.12 985.45 189.44 986.96 196.59 996.26 199.74 1011.18 194.31 1024.53 171.85 997.51 180.24 981.63 175.12"/>
          <polygon class="cls-84" points="1017.53 169.81 1009.57 167.7 993.48 171.74 994.45 163.28 990.01 162.11 992.53 151.35 1032.18 143.99 1028.63 151.35 1011.11 157.39 1011.99 166.08 1018.81 167.48 1017.53 169.81"/>
          <polygon class="cls-1" points="1032.18 143.99 992.53 151.35 990.01 162.11 994.45 163.28 993.48 171.74 1021.73 171.03 1017.53 169.81 1018.81 167.48 1011.99 166.08 1011.11 157.39 1028.63 151.35 1032.18 143.99"/>
          <path class="cls-131" d="M824.71,154.94l18.13,6.57,28.65-6.02-2.72,12.53,5.05,1.01v-.5s45.2,14,45.2,14l16.04-11.53-3.68-5.43-22.66-1.48s-4.52-15.48-3.98-15.54,51.59-.96,51.59-.96l11.38-7.96-2.69,16.68,6.04.82.61-10,20.85,4.22,39.65-7.36-3.55,7.36h19.68l-6.67,12.21-9.97,4.96-12.85-1.04-1.28,2.32-7.96-2.1-27.94,7.42,3.82,14.32-2.48,2.33-6.79.69-13.61,15.15.74-3.18-13.99,2.29-18.65,5.97-5.35-17.47,18.94-5.55-6.83-4.26-.06-4.83-7.5-.24-12.89,19.4-7.69,3.54,4.16-15.81-29.77-2.06-.69,13.44-7.68-4.77-.76-13.22-4.83,1.68-7.95-4.16-12.12,6.81-11.49-3.86-13.44-26.37Z"/>
          <path class="cls-82" d="M824.71,154.94l13.44,26.37s5,1.7,11.49,3.86l12.12-6.81,7.95,4.16,4.83-1.68.76,13.22,7.68,4.77.52,3.56,10.77,7.57h12.89l2.13-6.69,7.69-3.54,12.89-19.4,7.5.24.06,4.83,6.83,4.26-18.94,5.55,5.35,17.47-9.2,2.95,8.67,22.38,13.98,4,12.43-9.03,5.89-22.6.13-2.77,13.61-15.15,6.79-.69,2.48-2.33,1.51,7.15,9.3,3.15,14.92-5.43,13.35-22.46-7-2.05,1.28-2.32,12.85,1.04,9.97-4.96,6.67-12.21h-19.68l3.55-7.36-24.96-1.44-35.54,4.59-.61,10-6.04-.82,2.69-16.68h-6.62l6.11-8.65-7.93-2.87-6.1-1.73.1-5-17.76-4.46-9.19,1.92,2.58,20.21h-6l-18.16,9.5,3.98,15.54h-6.58l-28.32,4.43v1.8s-5.13-1.98-5.13-1.98l2.79-12.84-9.1-4.98.54-13.23-24.32-2.49-18.17,3.67,9.28,14.53-5.01,1.95Z"/>
        </g>
        <g>
          <polygon class="cls-79" points="1049.11 77.39 1073.22 82.36 1072.7 102.96 1060.9 116.43 1043.08 119.47 1042.96 108.44 1049.11 77.39"/>
          <polygon class="cls-116" points="1049.11 77.39 1055.15 97.17 1043.08 119.47 1042.96 108.44 1049.11 77.39"/>
          <polygon class="cls-108" points="1049.11 77.39 1055.15 97.17 1068.76 94.04 1073.22 82.36 1049.11 77.39"/>
          <polygon class="cls-109" points="1068.76 94.04 1060.9 116.43 1072.7 102.96 1073.22 82.36 1049.11 77.39 1055.15 97.17 1068.76 94.04"/>
        </g>
        <polygon class="cls-143" points="926.55 138.01 905.41 41.42 899.33 44.61 906.18 83.58 904.71 83.58 891.24 48.84 874.16 44.39 901.23 106.04 899.61 96.67 892 76.59 884.4 50.03 883.92 48.86 890.84 49.93 922.75 138.01 926.55 138.01"/>
        <path class="cls-150" d="M1011.95,118.22l-5.98,8.04,2.43-16.66.04-.29c-.19-4.01.93-9.64,2.08-14.25.29-1.15.57-2.25.85-3.24.27-.99.55-1.87.77-2.61.45-1.48.75-2.39.75-2.39,5.22-9.23,6.09-20.34,13.87-28.34.31-.74.59-1.53.85-2.31,2.39-7.07,4.57-13.5,4.57-13.5l6.15-3.56-27.43,11.81-18.51,1.82h17.58l16.59-7.58s-1.58,7.14-3.16,14.28c-.16.71-.32,1.43-.48,2.13-3.3,7.5-5.47,15.63-9.49,23.01-.73,1.08-1.17,1.69-1.17,1.69l-4.19,15.02c-1.67,2.62-18.19,18.19-18.19,18.19-2.6,6.06-8.33,16.37-8.33,16.37l6.07-4.47-14.51,15.58,6.57-1.04,10.78-17.03-7.39,4.83,7.63-14.24,17.15-16.28c-.94,12.81-2.25,24.08-2.25,24.08l5.52-7.03c-.47,4.52-3.87,22.3-3.87,22.3h1.79s.2-3.41.6-6.3c.41-2.92,2.34-18.02,2.34-18.02Z"/>
        <path class="cls-150" d="M1036.96,122.05l3,2.25c-2.3,1.46-4.04,3.64-6.16,5.34-.5.43-1.01.87-1.54,1.32-6.32,5.43-14.21,12.21-14.21,12.21l6.57.38s.27-.3.74-.83c.47-.53,1.14-1.28,1.95-2.18,3.39-6.27,7.52-12.81,14.2-16.7l-2.65-1.33,3.89-2.8v-3.29l-5.79,5.62Z"/>
        <polygon class="cls-150" points="1042.96 108.44 1049.11 77.39 1048.55 78.72 1038.86 122.52 1043.08 119.47 1059.75 117.24 1060.9 116.43 1043.08 119.47 1042.96 108.44"/>
        <polygon class="cls-102" points="935.52 116.91 950.66 119.73 953.73 120.25 953.17 126.38 953.27 121.38 935.52 116.91"/>
        <polygon class="cls-102" points="971.68 147.13 1007.22 142.55 1032.18 143.99 1029.95 148.6 1033.36 143.4 1006.05 141.73 971.68 147.13"/>
        <path class="cls-102" d="M859.44,88.19l1.93,12.07s4.14,10.13,7.93,19.41c.29.71.58,1.42.87,2.12,1.75,3.36,2.83,6.93,4.25,10.43.65,1.6,1.04,2.56,1.04,2.56l-1.97-2.32c2.12,4.58,3.86,9.34,5.36,14.39.3.68.6,1.36.91,2.05,3.68,8.19,7.35,16.38,7.35,16.38l14.06-1.05-27.33,4.28v.5s-5.06-1.01-5.06-1.01l.19-.89,4.24,1.21.4-1.21,10.06-1.09s-.76-5.17-3.21-11.47c-.27-.7-.55-1.42-.83-2.14-.24-.74-.48-1.49-.72-2.22-1.35-5.81-2.46-10.56-5.26-16.71-.56-1.23-1.45-2.51-2.1-3.7.43.79,2.1,1.92,2.53,2.91-1.52-5.15-4.13-9.91-7.79-14.08-.4-.68-.78-1.38-1.16-2.06-3.37-6.24-6.43-11.91-6.43-11.91,0,0-1.6,5.05-2.93,9.25-.19.6-.37,1.18-.55,1.73-.77,1.87-1.62,2.18-1.62,2.18,0,0,.72.06,1.34-1.74.28-1.02.61-2.22.96-3.5,1.76-6.4,4.11-14.92,4.11-14.92l-.58-9.45Z"/>
        <path class="cls-102" d="M890.22,100.52l.31-2,7.6,28.17,2.02-7.21s2.51,4.96,5.27,10.42c.31.61.62,1.22.93,1.83,1.63,3.34,3.37,6.31,4.91,9.71.79,1.57,1.29,2.55,1.29,2.55l-1.18.69s-2.29,2.29-2.45,2.04c.15-4.71-.52-9.6-2.45-14.03-3.33-7.63-5.71-11.31-5.71-11.31,0,0-1.2.27-2.03,6.81-.09.68-.26.87-.26.87,0,0-.66-.99-1.49-3.02-.21-.51-.43-1.07-.66-1.65-2.59-6.45-6.74-16.77-6.74-16.77l-5.61,9.31,6.04-11.77.23-4.62Z"/>
        <path class="cls-102" d="M919.86,56.48s.6,1.35,1.26,2.7c.67,1.34,1.34,2.68,1.34,2.68,0,0-.2.94-.55,2.55-.17.81-.38,1.78-.62,2.89-.12.72-.25,1.44-.39,2.16-.11.71-.15,1.41-.21,2.11.31,9.78-.12,19.89-6.4,28.2-.26,1.21-.5,2.32-.71,3.31-.64,2.97-1.04,4.83-1.04,4.83l4.45-1.78.32,35.07,5.44-3.18,26.28,1.42-26.12-.38s-4.54,2.37-9.08,4.75c-1.14.59-2.26,1.19-3.28,1.76-1.71,1.01-3.01,2.4-4.1,3.98,0-.59.87-.79.91-1.29.6-.74.94-1.78,2.12-2.47,2.36-1.38,4.73-2.77,4.73-2.77l2.02-34.7-4.34,1.09s.24-1.63.65-4.33c.13-.9.29-1.91.45-3.03.42-.87-.01-1.86.42-2.46,7.82-8.13,7.82-18.63,6.88-28.48.02-1.02-.06-2,0-3.03.32-3.08.25-6.21-.3-9.33-.09-1.45-.11-2.26-.11-2.26Z"/>
        <path class="cls-102" d="M911.35,1.96l-1.57,24.3s.7,1.81,1.79,4.64c.36.94.76,2,1.1,3.16.73,5.67,3.77,10.62,6.21,15.81.25.64.49,1.27.73,1.89,2.63,6.82,4.76,12.35,4.76,12.35,0,0,1.74-2.84,3.48-5.68.58-.95,1.16-1.89,1.67-2.74,1.02-1.45,1.81-1.84,1.81-1.84,0,0,.18-.01.51.58.16.42.36,1.03.6,1.74,1.62,4.99,8.97,30.76,9.55,33.35.19.86.41,1.72.62,2.56.33,1.76.12,3.35.33,5.13,0-1.39-.58-.86-.77-2.28-.18-.63-.27-2.96-.54-3.6-.79-1.94-1.22-3.95-1.58-6.05-.16-.58-.33-1.19-.5-1.83-2.1-7.59-5.24-18.97-6.94-25.11-.24-.88-.46-1.65-.63-2.29-.35-1.26-.56-1.79-.56-1.79,0,0-.18.21-.49.78-.3.63-.73,1.5-1.21,2.51-1.94,4.01-4.86,10.03-4.86,10.03,0,0-1.36-2.82-3.3-6.83-.28-.57-.56-1.17-.86-1.78-1.67-5.76-5.14-10.72-7.72-15.99-.3-.61-.58-1.21-.86-1.78-1.93-4-3.3-6.83-3.3-6.83,0,0-1.34,4.25-2.02,6.38-.22.71-.37,1.18-.37,1.18-1.3.76-2.82,1.36-4.56,1.36.65,0,1.09-.4,1.79-.67.87-.48,1.73-1.2,1.73-1.2l5.94-39.46Z"/>
        <path class="cls-102" d="M997.79,9.67s-4.04,22.31-6.35,35.06c-.23,1.27-.44,2.45-.62,3.5.57,6.95-.73,13.89-4.73,19.87-.32,1.26-.63,2.44-.89,3.44-.52,2.02-.87,3.36-.87,3.36,0,0-.4-.34-1-.86-.6-.51-5.98-5.36-5.98-5.36-.05.36-.28,21.28-.51,24.05-.3,3.62-1.9,7.93-2.29,8.79-1.4,3.6-4.01,6.77-6.34,9.66-.31.74-.62,1.48-.92,2.2-3.32,7.94-6.06,14.49-6.06,14.49l4,1.18s2.29-6.89,5.06-15.26c.25-.76.51-1.53.77-2.31,2.31-5.96,6-11.7,6.04-18.22.22-.65,1.07-18.24,1.09-19.4.03-1.95.17-3.22.17-3.22,0,0,1.25,1.01,1.79,1.56.55.58,1.28,1.34,2.02,2.11,1.47,1.54,2.93,3.07,2.93,3.07,0,0,1.4-4.41,2.97-9.36.22-.71.45-1.43.68-2.15.69-2.56,1.99-5.14,2.51-7.91.34-1.08.63-1.98.83-2.61.2-.63.31-.99.31-.99l7.46-1.63h-7.46l5.39-43.07Z"/>
        <polygon class="cls-36" points="847.32 117.92 855.81 136.55 858.7 136.85 853.01 122.6 858.7 123.36 877.09 166.75 878.57 166.59 860.02 113.07 859.23 100.52 853.67 118.35 847.32 117.92"/>
        <polygon class="cls-141" points="1026.56 45.16 987.25 144.68 980.62 145.73 994.45 101.07 991.17 89.72 965.31 152.99 966.25 147.76 967.15 143.17 967.62 145.16 992.39 54.37 1003.08 52.74 981.63 106.92 1006.81 52.74 1009.97 52.74 1026.56 45.16"/>
        <path class="cls-144" d="M1059.75,117.24l-26.39,34.11h-4.73l4.73-7.95,12.33-24.37,5.21-.81s-17.38,28.31-16.73,28.73c.65.41,23.88-30.03,23.88-30.03l1.69.33Z"/>
        <g>
          <path class="cls-53" d="M979.75,82.7c-.06-.13,0-.27.15-.33.14-.05.3,0,.36.14.06.13,0,.27-.15.33-.14.05-.3,0-.36-.14Z"/>
          <path class="cls-53" d="M972.47,105.91c-.06-.13,0-.27.15-.33.14-.05.3,0,.36.14.06.13,0,.27-.15.33-.14.05-.3,0-.36-.14Z"/>
          <path class="cls-53" d="M958.66,117.29c-.06-.13,0-.27.15-.33.14-.05.3,0,.36.14.06.13,0,.27-.15.33-.14.05-.3,0-.36-.14Z"/>
          <path class="cls-53" d="M973.11,80.92c-.16-.36.02-.77.42-.92.39-.15.84.02,1.01.38.16.36-.03.77-.42.92-.39.15-.84-.02-1.01-.38Z"/>
          <path class="cls-53" d="M976.09,102.72c-.1-.23.02-.48.26-.58.25-.09.53.01.63.24.1.23-.02.48-.26.58s-.53-.01-.63-.24Z"/>
          <path class="cls-53" d="M965.49,99.15c-.12-.26.02-.56.31-.67.29-.11.62.02.73.28.12.26-.02.56-.31.67-.29.11-.62-.02-.73-.28Z"/>
          <path class="cls-53" d="M972.27,78.28c-.09-.21.01-.44.24-.52.22-.08.48.01.57.22.09.21-.01.44-.24.52-.22.08-.48-.01-.57-.22Z"/>
          <path class="cls-53" d="M966.91,101.17c-.08-.18.01-.38.21-.45.19-.07.41.01.49.19.08.18-.01.38-.21.45-.19.07-.41-.01-.49-.19Z"/>
          <path class="cls-53" d="M938,72.93c-.08-.18.01-.38.21-.45.19-.07.41.01.49.19.08.18-.01.38-.21.45-.19.07-.41-.01-.49-.19Z"/>
          <path class="cls-53" d="M959.91,88.39c-.08-.18.01-.38.21-.45.19-.07.41.01.49.19.08.18-.01.38-.21.45s-.41-.01-.49-.19Z"/>
          <path class="cls-53" d="M985.86,114.34c-.09-.2.01-.43.23-.51.22-.08.47.01.56.21.09.2-.01.43-.23.51-.22.08-.47-.01-.56-.21Z"/>
          <path class="cls-53" d="M963.59,102.42c-.06-.13,0-.28.15-.34.14-.05.31,0,.37.14.06.13,0,.28-.15.34-.14.05-.31,0-.37-.14Z"/>
          <path class="cls-53" d="M975.06,119.28c-.09-.19.01-.42.23-.5.21-.08.46.01.55.21.09.19-.01.42-.23.5s-.46-.01-.55-.21Z"/>
          <path class="cls-53" d="M973.21,118.31c-.06-.14,0-.29.16-.35.15-.06.32,0,.39.15.06.14,0,.29-.16.35s-.32,0-.38-.15Z"/>
          <path class="cls-53" d="M974.17,110.39c-.06-.14,0-.29.16-.35.15-.06.32,0,.38.15.06.14,0,.29-.16.35-.15.06-.32,0-.38-.15Z"/>
          <path class="cls-53" d="M992.55,82.05c-.06-.14,0-.29.16-.35.15-.06.32,0,.39.15.06.14,0,.29-.16.35-.15.06-.32,0-.38-.15Z"/>
          <path class="cls-120" d="M963.19,102.57c-.15-.34.02-.72.39-.86.37-.14.79.02.94.36.15.34-.02.72-.39.86-.37.14-.79-.02-.94-.36Z"/>
          <path class="cls-94" d="M971.25,81.91c-.61-1.35.09-2.9,1.57-3.45,1.48-.56,3.17.09,3.78,1.44.61,1.35-.09,2.9-1.57,3.45-1.48.56-3.17-.09-3.78-1.44Z"/>
          <path class="cls-6" d="M974.14,119.66c-.3-.66.05-1.42.77-1.7.73-.27,1.56.04,1.86.71.3.66-.05,1.42-.77,1.7-.73.27-1.56-.04-1.86-.71Z"/>
          <path class="cls-68" d="M968.6,83.88c.19-.81,1.07-1.33,1.96-1.15.89.18,1.45.98,1.26,1.79-.19.81-1.07,1.33-1.96,1.15-.89-.18-1.45-.98-1.26-1.79Z"/>
          <path class="cls-88" d="M961.31,121.27c.47-1.97,2.6-3.22,4.76-2.79,2.16.43,3.52,2.37,3.05,4.34-.47,1.97-2.6,3.22-4.76,2.79-2.16-.43-3.52-2.37-3.05-4.34Z"/>
          <path class="cls-113" d="M991.76,78.64c.21-.9,1.18-1.46,2.16-1.27.98.2,1.6,1.08,1.39,1.97-.21.9-1.18,1.46-2.16,1.27-.98-.2-1.6-1.08-1.39-1.97Z"/>
        </g>
        <polygon class="cls-102" points="928.91 139.05 926.33 118.84 935.52 116.91 941.12 118.32 941.12 116.91 934.03 115.91 924.41 118.78 926.62 138.69 928.91 139.05"/>
        <path class="cls-102" d="M953.73,120.25s.81,6.3,1.52,6.14c.72-.17,12.78,3.53,12.78,3.53l-4.82,9.13h6.37l-4.28,15.9,4.28.96,1.47-9.31,11.85-1.23-11.23,1.77-.61,10-6.04-.82,2.69-16.68h-6.62l6.11-8.65-14.04-4.6v-5.44l.57-.7Z"/>
        <polygon class="cls-102" points="953.17 126.38 935.69 128.12 953.27 125.26 953.17 126.38"/>
        <polygon class="cls-153" points="905.76 39.11 905.41 41.42 891.24 48.84 874.16 44.39 891.74 50.13 906.45 41.94 905.76 39.11"/>
        <polygon class="cls-149" points="890.84 88.19 890.9 107.05 890.22 100.52 890.84 88.19"/>
        <path class="cls-102" d="M1054.08,53.62c.86-.97,1.11-1.56.25-.95-.86.61-.88,1.66-.25.95Z"/>
        <path class="cls-102" d="M1058.82,52.02c.96-2.06.19-1.65-.85-.46-1.03,1.19.33,1.57.85.46Z"/>
        <path class="cls-102" d="M1054.81,48.58c-1.44.86-.81,1.72-.61,2.04.14.22,1.9-2.82.61-2.04Z"/>
        <path class="cls-102" d="M887.64,154.31c-1.88-1.69-2.36-1.34-2.15-.91.95,1.96,2.15.91,2.15.91Z"/>
        <path class="cls-102" d="M1055.82,52.7c-.18.16-.62.66.2.42.83-.24-.01-.59-.2-.42Z"/>
        <path class="cls-102" d="M1060.14,47.91c-.99.37-1.57,1.53-.9,1.29.66-.24,1.88-1.65.9-1.29Z"/>
        <path class="cls-102" d="M839.41,53.55c1,.48,3.27,1.72,1.48-.16s-2.5-.33-1.48.16Z"/>
        <path class="cls-102" d="M891.2,146.83c.04-2.46-3.03-.37-2.16.21.72.48,2.15.5,2.16-.21Z"/>
        <path class="cls-102" d="M837.62,54.93c-.57.32.72.99.67.57s-.26-.8-.67-.57Z"/>
        <path class="cls-102" d="M841.29,52.24c-.6.27.57.8.57.8,0,0-.16-.99-.57-.8Z"/>
        <path class="cls-102" d="M840.55,57.38c.35.57,1.5.99.94,0-.56-.99-1.32-.61-.94,0Z"/>
        <path class="cls-102" d="M1052.21,63.92c-2.75.98.02-8.76,2.94-5.57,2.92,3.19,2.92,3.49-2.94,5.57Z"/>
        <path class="cls-102" d="M1032.18,102.55c-.45,3.04,7.59-1.93,6.15-3.48-1.43-1.55-5.66.18-6.15,3.48Z"/>
        <path class="cls-102" d="M978.65,40.66c-2.14,2.3,4.05,3.6,5.92,2.18,1.87-1.41-1.98-6.42-5.92-2.18Z"/>
        <path class="cls-102" d="M847.32,56.5c-5.66,7.11,9.19,7.13,8.48,5.64s-2.57-13.07-8.48-5.64Z"/>
        <path class="cls-102" d="M944.42,67.78c3.02,2.13,5.89.07,2.15-1.28-3.74-1.34-4.76-.56-2.15,1.28Z"/>
        <path class="cls-102" d="M893.57,151.15c-1.77.51-3.75,2.09-2.28,2.83,1.47.74,2.09,1.21,3.43.83,1.33-.38.83-4.23-1.15-3.66Z"/>
        <path class="cls-98" d="M1043.76,100.52c0,4.33-3.85,7.85-8.6,7.85s-8.6-3.51-8.6-7.85,3.85-7.85,8.6-7.85,8.6,3.51,8.6,7.85Z"/>
        <path class="cls-19" d="M1045.99,101.38c0,5.46-4.85,9.88-10.83,9.88s-10.83-4.42-10.83-9.88,4.85-9.88,10.83-9.88,10.83,4.42,10.83,9.88Z"/>
        <path class="cls-97" d="M950.68,66.65c0,3.2-2.84,5.8-6.35,5.8s-6.35-2.6-6.35-5.8,2.84-5.8,6.35-5.8,6.35,2.6,6.35,5.8Z"/>
        <ellipse class="cls-137" cx="945.61" cy="67.26" rx="6.35" ry="5.8"/>
        <path class="cls-59" d="M1012.64,103.61c-1.82,4.46-5.27,7.41-7.72,6.58-2.45-.83-2.96-5.12-1.14-9.58,1.82-4.46,5.27-7.41,7.72-6.58,2.45.83,2.96,5.12,1.14,9.58Z"/>
        <path class="cls-61" d="M1012.64,103.61c-1.82,4.46-5.27,7.41-7.72,6.58-2.45-.83-2.96-5.12-1.14-9.58,1.82-4.46,5.27-7.41,7.72-6.58,2.45.83,2.96,5.12,1.14,9.58Z"/>
        <path class="cls-14" d="M1012.64,103.61c-1.82,4.46-5.27,7.41-7.72,6.58-2.45-.83-2.96-5.12-1.14-9.58,1.82-4.46,5.27-7.41,7.72-6.58,2.45.83,2.96,5.12,1.14,9.58Z"/>
        <path class="cls-77" d="M929.49,62.47c0,9.14-4.06,16.55-9.07,16.55s-9.07-7.41-9.07-16.55,4.06-16.55,9.07-16.55,9.07,7.41,9.07,16.55Z"/>
        <path class="cls-106" d="M929.49,62.47c0,9.14-4.06,16.55-9.07,16.55s-9.07-7.41-9.07-16.55,4.06-16.55,9.07-16.55,9.07,7.41,9.07,16.55Z"/>
        <path class="cls-107" d="M929.49,62.47c0,9.14-4.06,16.55-9.07,16.55s-9.07-7.41-9.07-16.55,4.06-16.55,9.07-16.55,9.07,7.41,9.07,16.55Z"/>
        <path class="cls-40" d="M941.59,101.73c3.99-.16,7.49,5.05,7.82,11.65.32,6.6-2.65,12.08-6.65,12.24-3.99.16-7.49-5.05-7.82-11.65-.32-6.6,2.65-12.08,6.65-12.24Z"/>
        <path class="cls-115" d="M941.59,101.73c3.99-.16,7.49,5.05,7.82,11.65.32,6.6-2.65,12.08-6.65,12.24-3.99.16-7.49-5.05-7.82-11.65-.32-6.6,2.65-12.08,6.65-12.24Z"/>
        <path class="cls-111" d="M941.59,101.73c3.99-.16,7.49,5.05,7.82,11.65.32,6.6-2.65,12.08-6.65,12.24-3.99.16-7.49-5.05-7.82-11.65-.32-6.6,2.65-12.08,6.65-12.24Z"/>
        <g>
          <polygon class="cls-12" points="935.67 16.15 937.92 29.39 948.82 38.99 961.49 26.44 961.03 21.38 954.56 16.19 935.67 16.15"/>
          <polygon class="cls-78" points="961.03 21.38 946.27 23.67 948.82 38.99 961.49 26.44 961.03 21.38"/>
          <polygon class="cls-127" points="935.67 16.15 946.27 23.67 961.03 21.38 954.56 16.19 935.67 16.15"/>
        </g>
        <g>
          <polygon class="cls-38" points="966.67 42.26 965.51 48.92 962.12 50.62 957.91 49.04 956.31 39.65 961.32 39.65 966.67 42.26"/>
          <polygon class="cls-112" points="956.31 39.65 961.97 43.03 962.12 50.62 957.91 49.04 956.31 39.65"/>
          <polygon class="cls-47" points="966.67 42.26 961.97 43.03 956.31 39.65 961.32 39.65 966.67 42.26"/>
        </g>
      </g>
    </g>
  </g>
</svg>